<svg fill="none" height="70" viewBox="0 0 70 70" width="70" xmlns="http://www.w3.org/2000/svg"><path d="m15.1084 5.59999h39.7833c1.4329-.00132 2.852.27401 4.176.81023 1.3241.53623 2.5272 1.32282 3.5404 2.31477 1.0132.99194 1.8166 2.16981 2.3643 3.46601.5477 1.2963.829 2.6857.8276 4.0885v37.441c.0014 1.4028-.2799 2.7921-.8276 4.0884s-1.3511 2.4741-2.3643 3.4661c-1.0132.9919-2.2163 1.7785-3.5404 2.3148-1.324.5362-2.7431.8115-4.176.8102h-39.7833c-1.4329.0013-2.852-.274-4.1761-.8102-1.32405-.5363-2.52712-1.3229-3.54032-2.3148-1.0132-.992-1.81665-2.1698-2.36437-3.4661-.54771-1.2963-.82894-2.6856-.82759-4.0884v-37.441c-.00135-1.4028.27988-2.7922.82759-4.0885.54772-1.2962 1.35117-2.47407 2.36437-3.46601 1.0132-.99195 2.21627-1.77854 3.54032-2.31477 1.3241-.53622 2.7432-.81155 4.1761-.81023z" fill="#300"/><g fill="#ff9a00"><path d="m34.0503 40.88h-9.548l-1.9506 5.9051c-.0218.1076-.0839.2034-.1742.2685-.0902.0651-.202.0948-.3135.0833h-4.8253c-.2824 0-.3594-.1508-.2824-.4523l8.2647-23.2938c.077-.2513.154-.5277.2567-.8293.1033-.5385.1548-1.0853.154-1.6333-.0077-.0629.0092-.1264.0472-.1776.0381-.0513.0946-.0866.1581-.0988h6.6477c.2053 0 .308.0754.3336.201l9.3684 25.8821c.077.2764 0 .402-.2567.402h-5.3643c-.0907.0086-.1816-.0145-.2568-.065-.0751-.0506-.1296-.1254-.1539-.2114zm-8.0593-5.101h6.5193c-.154-.5277-.3593-1.1559-.5903-1.8093-.231-.6533-.462-1.4071-.693-2.161-.231-.7538-.4877-1.5328-.7443-2.3118-.2567-.779-.4877-1.5077-.693-2.2364-.2054-.7287-.385-1.3569-.5647-1.96h-.0513c-.2307 1.0952-.522 2.1773-.8727 3.2415-.385 1.2062-.77 2.4626-1.1807 3.719-.3593 1.2816-.7443 2.4626-1.1293 3.518z"/><path d="m47.782 24.9487c-.4213.009-.8402-.0641-1.2324-.2151-.3921-.151-.7497-.3768-1.0519-.6644-.588-.6295-.9013-1.4592-.8727-2.3118-.0151-.4154.0593-.8293.2185-1.2146s.3996-.7335.7055-1.0218c.617-.5709 1.4355-.886 2.2844-.8795 1.001 0 1.771.3016 2.3356.8795.5686.6093.8725 1.4115.847 2.2364.0157.4246-.0557.8479-.21 1.245-.1543.397-.3884.7598-.6883 1.0668-.3024.3016-.6674.5362-1.0704.6879-.4029.1517-.8344.2171-1.2653.1916zm-2.8746 21.8113v-19.3487c0-.2513.1026-.3518.3336-.3518h5.082c.231 0 .3337.1256.3337.3518v19.3487c0 .2764-.1027.402-.3337.402h-5.0306c-.054.0044-.1082-.0032-.1587-.0223-.0505-.019-.096-.049-.133-.0877-.037-.0386-.0646-.085-.0808-.1355-.0162-.0506-.0204-.1041-.0125-.1565z"/></g></svg>