<svg fill="none" height="46" viewBox="0 0 46 46" width="46" xmlns="http://www.w3.org/2000/svg"><path d="m24.3665 8.22806 11.5 11.50004c.1787.1787.3204.3908.4171.6243.0968.2335.1465.4838.1465.7365s-.0497.503-.1465.7365c-.0967.2335-.2384.4456-.4171.6243-.1788.1787-.3909.3205-.6244.4172s-.4837.1465-.7365.1465c-.2527 0-.503-.0498-.7365-.1465-.2334-.0967-.4456-.2385-.6243-.4172l-8.2225-8.2416v22.2141c0 .5084-.2019.9959-.5614 1.3553-.3594.3595-.8469.5614-1.3553.5614-.5083 0-.9958-.2019-1.3553-.5614-.3594-.3594-.5613-.8469-.5613-1.3553v-22.2141l-8.2225 8.2416c-.361.3609-.8505.5637-1.3609.5637s-.9999-.2028-1.3608-.5637c-.36092-.3609-.56369-.8504-.56369-1.3608s.20277-.9999.56369-1.3608l11.5-11.50004c.1782-.17965.3902-.32224.6237-.41955.2336-.0973.4841-.1474.7371-.1474s.5036.0501.7371.1474c.2336.09731.4456.2399.6238.41955z" fill="#222221"/></svg>