<svg fill="none" height="46" viewBox="0 0 46 46" width="46" xmlns="http://www.w3.org/2000/svg"><path d="m0 23c0-12.7025 10.2975-23 23-23s23 10.2975 23 23-10.2975 23-23 23-23-10.2975-23-23z" fill="#1157ff"/><path d="m18.1897 15.8125c.6639 0 1.2767.0511 1.8384.2043.5618.1021 1.0214.3064 1.4299.5617s.7149.6128.9192 1.0724c.2042.4596.3064 1.0213.3064 1.6341 0 .715-.1532 1.3278-.5107 1.7874-.3064.4596-.817.8681-1.4298 1.1745.8681.2553 1.532.7149 1.9405 1.3277s.6638 1.3788.6638 2.247c0 .7149-.1532 1.3277-.4085 1.8383-.2553.5107-.6638.9703-1.1234 1.2767s-1.0214.5617-1.6342.7149-1.2256.2554-1.8384.2554h-6.8429v-14.0944zm-.4085 5.7195c.5617 0 1.0213-.1532 1.3788-.4086.3575-.2553.5107-.7149.5107-1.2766 0-.3064-.0511-.6128-.1532-.8171-.1022-.2043-.2554-.3575-.4596-.5107-.2043-.1021-.4086-.2042-.6639-.2553s-.5107-.0511-.8171-.0511h-2.9618v3.3194zm.1532 6.0258c.3064 0 .6128-.0511.8681-.1021.2554-.0511.5107-.1532.715-.3064.2042-.1532.3574-.3064.5106-.5617.1022-.2554.2043-.5618.2043-.9192 0-.715-.2043-1.2256-.6128-1.5831-.4085-.3064-.9703-.4596-1.6341-.4596h-3.3704v3.9321zm9.8558-.0511c.4086.4086 1.0214.6128 1.8384.6128.5618 0 1.0724-.1532 1.481-.4085.4085-.3064.6638-.6128.766-.9192h2.5022c-.4085 1.2256-1.0213 2.0937-1.8384 2.6555-.817.5106-1.7873.817-2.9618.817-.8171 0-1.532-.1532-2.1959-.4085s-1.1745-.6128-1.6341-1.1235c-.4596-.4596-.8171-1.0213-1.0214-1.6852-.2553-.6638-.3574-1.3787-.3574-2.1958 0-.766.1021-1.4809.3574-2.1448.2554-.6639.6128-1.2256 1.0724-1.7363.4596-.4596 1.0214-.8681 1.6342-1.1234.6638-.2554 1.3277-.4086 2.1448-.4086.8681 0 1.6341.1532 2.298.5107.6638.3575 1.1745.766 1.583 1.3788.4086.5617.715 1.2256.9192 1.9405.1022.715.1532 1.4299.1022 2.247h-7.4047c0 .817.3064 1.583.7149 1.9915zm3.2172-5.3619c-.3574-.3575-.9192-.5618-1.583-.5618-.4596 0-.8171.1022-1.1235.2554s-.5107.3574-.7149.5617c-.2043.2043-.3064.4596-.3575.7149-.0511.2554-.1021.4596-.1021.6639h4.596c-.1022-.766-.3575-1.2767-.715-1.6341zm-4.4938-5.362h5.7194v1.3788h-5.7194z" fill="#fff"/></svg>