<svg fill="none" height="70" viewBox="0 0 70 70" width="70" xmlns="http://www.w3.org/2000/svg"><path d="m63 4.2-5.1017 55.4336-22.9326 6.1664-22.8694-6.1578-5.0963-55.4422z" fill="#264de4"/><path d="m53.5306 56.1037 4.3598-47.37048h-22.8904v52.35338z" fill="#2965f1"/><g fill="#ebebeb"><path d="m18.6833 29.296.6283 6.7997h15.6884v-6.7997z"/><path d="m35 15.533h-.0242-17.5551l.6373 6.7998h16.942z"/><path d="m35 54.0301v-7.0746l-.0307.008-7.8077-2.0449-.4992-5.4231h-3.7939-3.2436l.9822 10.6766 14.3607 3.8667z"/></g><path d="m43.6085 36.0956-.8138 8.8187-7.819 2.047v7.0743l14.3722-3.8634.1054-1.1488 1.6474-17.9016.1711-1.8259 1.2656-13.7629h-17.5617v6.7998h9.8787l-.6379 6.9631h-9.2408v6.7997z" fill="#fff"/></svg>