<svg fill="none" height="46" viewBox="0 0 46 46" width="46" xmlns="http://www.w3.org/2000/svg"><path d="m11.5271 7.66246c-4.23393 0-7.66669 3.43274-7.66669 7.66664v15.3333c0 4.2339 3.43276 7.6667 7.66669 7.6667h23c4.2339 0 7.6667-3.4328 7.6667-7.6667v-15.3333c0-4.2339-3.4328-7.66664-7.6667-7.66664zm0 3.83334h23c1.932 0 3.5286 1.4183 3.7931 3.2775-1.8361 1.7116-4.5655 3.8122-6.3691 5.1079-4.1496 2.9804-7.8008 5.0312-8.924 5.0312s-4.7744-2.0489-8.924-5.0312c-1.8036-1.2957-3.5765-2.6968-4.91242-3.8333-.56925-.4849-.99094-.8759-1.31677-1.1979.2645-1.8592 1.72118-3.3542 3.65319-3.3542zm-3.81416 8.3452c4.86446 3.9349 11.99256 8.8818 15.31416 8.9048 2.1639.0153 5.865-2.0509 9.6409-4.6594 1.953-1.3513 4.1266-2.9555 5.6944-4.2723l-.0019 10.8483c0 2.118-1.7155 3.8334-3.8334 3.8334h-23c-2.11793 0-3.83335-1.7154-3.83335-3.8334z" fill="#2a343d"/></svg>