<svg fill="none" height="70" viewBox="0 0 70 70" width="70" xmlns="http://www.w3.org/2000/svg"><path d="m15.1084 5.59999h39.7833c1.4329-.00132 2.852.27401 4.176.81023 1.3241.53623 2.5272 1.32282 3.5404 2.31477 1.0132.99194 1.8166 2.16981 2.3643 3.46601.5477 1.2963.829 2.6857.8276 4.0885v37.441c.0014 1.4028-.2799 2.7921-.8276 4.0884s-1.3511 2.4741-2.3643 3.4661c-1.0132.9919-2.2163 1.7785-3.5404 2.3148-1.324.5362-2.7431.8115-4.176.8102h-39.7833c-1.4329.0013-2.852-.274-4.1761-.8102-1.32405-.5363-2.52712-1.3229-3.54032-2.3148-1.0132-.992-1.81665-2.1698-2.36437-3.4661-.54771-1.2963-.82894-2.6856-.82759-4.0884v-37.441c-.00135-1.4028.27988-2.7922.82759-4.0885.54772-1.2962 1.35117-2.47407 2.36437-3.46601 1.0132-.99195 2.21627-1.77854 3.54032-2.31477 1.3241-.53622 2.7432-.81155 4.1761-.81023z" fill="#000b1d"/><path d="m28.5833 53.8461c3.5438 0 6.4167-2.8125 6.4167-6.282v-6.2821h-6.4167c-3.5438 0-6.4167 2.8126-6.4167 6.2821s2.8729 6.282 6.4167 6.282z" fill="#0acf83"/><path d="m22.1666 35c0-3.4695 2.8729-6.2821 6.4167-6.2821h6.4167v12.5642h-6.4167c-3.5438 0-6.4167-2.8126-6.4167-6.2821z" fill="#a259ff"/><path d="m22.1666 22.4359c0-3.4695 2.8729-6.2821 6.4167-6.2821h6.4167v12.5641h-6.4167c-3.5438 0-6.4167-2.8125-6.4167-6.282z" fill="#f24e1e"/><path d="m34.9999 16.1538h6.4167c3.5438 0 6.4167 2.8126 6.4167 6.2821s-2.8729 6.282-6.4167 6.282h-6.4167z" fill="#ff7262"/><path d="m47.8333 35c0 3.4695-2.8729 6.2821-6.4167 6.2821s-6.4167-2.8126-6.4167-6.2821 2.8729-6.2821 6.4167-6.2821 6.4167 2.8126 6.4167 6.2821z" fill="#1abcfe"/></svg>