<svg fill="none" height="46" viewBox="0 0 46 46" width="46" xmlns="http://www.w3.org/2000/svg"><path d="m0 23c0 12.7025 10.2975 23 23 23s23-10.2975 23-23-10.2975-23-23-23-23 10.2975-23 23z" fill="#231e1b"/><path clip-rule="evenodd" d="m22.9648 11.776c-6.3302 0-11.4648 5.1346-11.4648 11.4648 0 5.0643 3.3058 9.3548 7.8073 10.9022.5627.0703.7737-.2814.7737-.5627 0-.2814 0-.9847 0-1.9694-3.1651.7033-3.8685-1.5474-3.8685-1.5474-.4923-1.3364-1.266-1.6881-1.266-1.6881-1.0551-.7034.0703-.7034.0703-.7034 1.1254.0704 1.7584 1.1957 1.7584 1.1957 1.0551 1.7585 2.6728 1.2661 3.3058.9848.0704-.7737.4221-1.2661.7034-1.5474-2.5321-.2814-5.2049-1.2661-5.2049-5.6973 0-1.2661.422-2.2508 1.1957-3.0948-.0703-.211-.4923-1.4067.1407-2.9541 0 0 .9847-.2814 3.1651 1.1957.9144-.2814 1.8991-.3517 2.8838-.3517s1.9695.1407 2.8838.3517c2.1805-1.4771 3.1652-1.1957 3.1652-1.1957.633 1.5474.211 2.7431.1406 3.0244.7034.7737 1.1958 1.8288 1.1958 3.0948 0 4.4312-2.6728 5.3456-5.2049 5.627.422.3516.7737 1.055.7737 2.11v3.1652c0 .2813.211.633.7737.5627 4.5718-1.5474 7.8073-5.8379 7.8073-10.9022-.0703-6.3302-5.2049-11.4648-11.5352-11.4648z" fill="#fff" fill-rule="evenodd"/></svg>