<svg width="430" height="932" viewBox="0 0 430 932" fill="none" xmlns="http://www.w3.org/2000/svg">
<g clip-path="url(#clip0_377_43979)">
<rect width="430" height="932" fill="#FFC700"/>
<g style="mix-blend-mode:screen" clip-path="url(#clip1_377_43979)">
<g clip-path="url(#clip2_377_43979)">
<path d="M427.871 18.4001C427.296 18.4001 426.73 18.4001 426.163 18.439C426.152 28.9036 422.1 38.9598 414.852 46.509C407.604 54.0582 397.72 58.5171 387.263 58.9553V59.0407C397.72 59.4789 407.604 63.9378 414.852 71.487C422.1 79.0362 426.152 89.0924 426.163 99.5571C426.73 99.5571 427.296 99.5571 427.871 99.5571C438.543 99.4095 448.727 95.0673 456.221 87.4698C463.716 79.8722 467.917 69.6302 467.917 58.9592C467.917 48.2882 463.716 38.0461 456.221 30.4486C448.727 22.8511 438.543 18.5089 427.871 18.3613V18.4001Z" fill="#FF9513" fill-opacity="0.36"/>
<path d="M424.758 18.4003C425.325 18.4003 425.891 18.4003 426.458 18.3537C426.471 7.8904 430.524 -2.16383 437.772 -9.71137C445.02 -17.2589 454.903 -21.7168 465.358 -22.1549V-22.2403C454.901 -22.6785 445.017 -27.1374 437.769 -34.6866C430.521 -42.2358 426.469 -52.292 426.458 -62.7567C425.891 -62.7567 425.325 -62.8032 424.758 -62.8032C413.988 -62.8032 403.659 -58.5255 396.044 -50.9112C388.428 -43.2969 384.15 -32.9697 384.15 -22.2015C384.15 -11.4332 388.428 -1.10601 396.044 6.5083C403.659 14.1226 413.988 18.4003 424.758 18.4003Z" fill="#FF9513" fill-opacity="0.36"/>
<path d="M426.163 261.956C426.73 261.956 427.296 262.003 427.871 262.003C438.641 262.003 448.97 257.725 456.585 250.111C464.201 242.497 468.479 232.169 468.479 221.401C468.479 210.633 464.201 200.306 456.585 192.691C448.97 185.077 438.641 180.799 427.871 180.799C427.296 180.799 426.73 180.799 426.163 180.846C426.15 191.309 422.097 201.363 414.849 208.911C407.601 216.458 397.719 220.916 387.263 221.354V221.44C397.72 221.878 407.604 226.337 414.852 233.886C422.1 241.435 426.152 251.492 426.163 261.956Z" fill="#FF9513" fill-opacity="0.36"/>
<path d="M424.758 180.799C425.325 180.799 425.891 180.799 426.458 180.753C426.471 170.29 430.524 160.235 437.772 152.688C445.02 145.14 454.903 140.682 465.358 140.244V140.159C454.901 139.721 445.017 135.262 437.769 127.713C430.521 120.163 426.469 110.107 426.458 99.6425C425.891 99.6425 425.325 99.5959 424.758 99.5959C413.988 99.5959 403.659 103.874 396.044 111.488C388.428 119.102 384.15 129.429 384.15 140.198C384.15 150.966 388.428 161.293 396.044 168.907C403.659 176.522 413.988 180.799 424.758 180.799Z" fill="#FF9513" fill-opacity="0.36"/>
<path d="M426.458 424.441C425.891 424.441 425.325 424.441 424.758 424.441C419.426 424.44 414.145 425.489 409.219 427.529C404.292 429.568 399.815 432.558 396.044 436.328C392.273 440.097 389.282 444.573 387.241 449.498C385.201 454.424 384.15 459.703 384.15 465.035H465.358V464.996C454.895 464.558 445.005 460.093 437.756 452.536C430.507 444.978 426.459 434.912 426.458 424.441Z" fill="#FF9513" fill-opacity="0.36"/>
<path d="M426.163 424.356C426.73 424.356 427.296 424.402 427.871 424.402C438.641 424.402 448.97 420.125 456.585 412.51C464.201 404.896 468.479 394.569 468.479 383.8C468.479 373.032 464.201 362.705 456.585 355.091C448.97 347.476 438.641 343.199 427.871 343.199C427.296 343.199 426.73 343.199 426.163 343.245C426.15 353.709 422.097 363.763 414.849 371.31C407.601 378.858 397.719 383.316 387.263 383.754V383.839C397.72 384.278 407.604 388.736 414.852 396.286C422.1 403.835 426.152 413.891 426.163 424.356Z" fill="#FF9513" fill-opacity="0.36"/>
<path d="M424.758 343.199C425.325 343.199 425.891 343.199 426.458 343.152C426.475 332.691 430.53 322.641 437.777 315.097C445.025 307.553 454.905 303.097 465.358 302.659V302.574C454.901 302.135 445.017 297.676 437.769 290.127C430.521 282.578 426.469 272.522 426.458 262.057C425.891 262.057 425.325 262.057 424.758 262.057C419.426 262.056 414.145 263.105 409.219 265.145C404.292 267.185 399.815 270.174 396.044 273.944C392.273 277.714 389.282 282.189 387.241 287.115C385.201 292.04 384.15 297.32 384.15 302.651C384.164 313.41 388.449 323.723 396.063 331.326C403.677 338.928 413.998 343.199 424.758 343.199Z" fill="#FF9513" fill-opacity="0.36"/>
<path d="M259.221 18.4001C258.646 18.4001 258.08 18.4001 257.513 18.439C257.502 28.9036 253.45 38.9598 246.202 46.509C238.954 54.0582 229.07 58.5171 218.613 58.9553V59.0407C229.07 59.4789 238.954 63.9378 246.202 71.487C253.45 79.0362 257.502 89.0924 257.513 99.5571C258.08 99.5571 258.646 99.5571 259.221 99.5571C269.893 99.4095 280.077 95.0673 287.571 87.4698C295.066 79.8722 299.267 69.6302 299.267 58.9592C299.267 48.2882 295.066 38.0461 287.571 30.4486C280.077 22.8511 269.893 18.5089 259.221 18.3613V18.4001Z" fill="#FF9513" fill-opacity="0.36"/>
<path d="M340.429 99.596C341.003 99.596 341.57 99.596 342.137 99.596C342.146 89.1308 346.198 79.0735 353.446 71.5239C360.694 63.9743 370.579 59.5159 381.037 59.0796V58.9399C370.579 58.5036 360.694 54.0453 353.446 46.4956C346.198 38.946 342.146 28.8887 342.137 18.4235C341.57 18.4235 341.003 18.3847 340.429 18.3847C335.05 18.3104 329.709 19.3055 324.718 21.3124C319.726 23.3192 315.183 26.2978 311.353 30.0751C307.522 33.8523 304.481 38.3529 302.405 43.3154C300.329 48.278 299.26 53.6035 299.26 58.9826C299.26 64.3617 300.329 69.6873 302.405 74.6498C304.481 79.6123 307.522 84.1129 311.353 87.8902C315.183 91.6674 319.726 94.646 324.718 96.6528C329.709 98.6597 335.05 99.6548 340.429 99.5805V99.596Z" fill="#FF9513" fill-opacity="0.36"/>
<path d="M341.842 18.3537C342.409 18.3537 342.975 18.4003 343.542 18.4003C354.312 18.4003 364.641 14.1226 372.256 6.5083C379.872 -1.10601 384.15 -11.4332 384.15 -22.2015C384.15 -32.9697 379.872 -43.2969 372.256 -50.9112C364.641 -58.5255 354.312 -62.8032 343.542 -62.8032C342.975 -62.8032 342.409 -62.8032 341.842 -62.7567C341.831 -52.2907 337.778 -42.2334 330.528 -34.684C323.278 -27.1346 313.392 -22.6765 302.934 -22.2403V-22.1549C313.391 -21.7187 323.276 -17.2617 330.525 -9.71395C337.775 -2.16621 341.829 7.88911 341.842 18.3537Z" fill="#FF9513" fill-opacity="0.36"/>
<path d="M256.108 18.4003C256.675 18.4003 257.241 18.4003 257.808 18.3537C257.821 7.8904 261.874 -2.16383 269.122 -9.71137C276.37 -17.2589 286.253 -21.7168 296.708 -22.1549V-22.2403C286.251 -22.6785 276.367 -27.1374 269.119 -34.6866C261.871 -42.2358 257.819 -52.292 257.808 -62.7567C257.241 -62.7567 256.675 -62.8032 256.108 -62.8032C245.338 -62.8032 235.009 -58.5255 227.394 -50.9112C219.778 -43.2969 215.5 -32.9697 215.5 -22.2015C215.5 -11.4332 219.778 -1.10601 227.394 6.5083C235.009 14.1226 245.338 18.4003 256.108 18.4003Z" fill="#FF9513" fill-opacity="0.36"/>
<path d="M384.15 302.597C384.15 297.265 383.099 291.986 381.059 287.06C379.018 282.135 376.027 277.659 372.256 273.89C368.485 270.12 364.008 267.13 359.082 265.091C354.155 263.051 348.874 262.002 343.542 262.003C342.975 262.003 342.409 262.003 341.842 262.003C341.831 272.469 337.778 282.526 330.528 290.076C323.278 297.625 313.392 302.083 302.934 302.519V302.659C313.391 303.095 323.276 307.552 330.525 315.1C337.775 322.648 341.829 332.703 341.842 343.168C342.409 343.168 342.975 343.214 343.542 343.214C348.876 343.214 354.158 342.163 359.086 340.122C364.013 338.081 368.491 335.089 372.262 331.317C376.033 327.545 379.024 323.067 381.063 318.139C383.103 313.211 384.152 307.93 384.15 302.597Z" fill="#FF9513" fill-opacity="0.36"/>
<path d="M259.221 180.799C258.646 180.799 258.08 180.799 257.513 180.846C257.5 191.309 253.447 201.363 246.199 208.911C238.951 216.458 229.069 220.916 218.613 221.354V221.44C229.07 221.878 238.954 226.337 246.202 233.886C253.45 241.435 257.502 251.492 257.513 261.956C258.08 261.956 258.646 262.003 259.221 262.003C269.991 262.003 280.32 257.725 287.935 250.111C295.551 242.497 299.829 232.169 299.829 221.401C299.829 210.633 295.551 200.306 287.935 192.691C280.32 185.077 269.991 180.799 259.221 180.799Z" fill="#FF9513" fill-opacity="0.36"/>
<path d="M340.429 262.003C341.003 262.003 341.57 262.003 342.137 261.956C342.146 251.491 346.198 241.434 353.446 233.884C360.694 226.335 370.579 221.876 381.037 221.44V221.354C370.581 220.918 360.697 216.461 353.449 208.913C346.2 201.365 342.148 191.31 342.137 180.846C341.57 180.846 341.003 180.799 340.429 180.799C329.659 180.799 319.33 185.077 311.715 192.691C304.099 200.306 299.821 210.633 299.821 221.401C299.821 232.169 304.099 242.497 311.715 250.111C319.33 257.725 329.659 262.003 340.429 262.003Z" fill="#FF9513" fill-opacity="0.36"/>
<path d="M341.842 180.753C342.409 180.753 342.975 180.799 343.542 180.799C354.312 180.799 364.641 176.522 372.256 168.907C379.872 161.293 384.15 150.966 384.15 140.198C384.15 129.429 379.872 119.102 372.256 111.488C364.641 103.874 354.312 99.5959 343.542 99.5959C342.975 99.5959 342.409 99.5959 341.842 99.6425C341.831 110.108 337.778 120.166 330.528 127.715C323.278 135.265 313.392 139.723 302.934 140.159V140.244C313.391 140.68 323.276 145.137 330.525 152.685C337.775 160.233 341.829 170.288 341.842 180.753Z" fill="#FF9513" fill-opacity="0.36"/>
<path d="M256.108 180.799C256.675 180.799 257.241 180.799 257.808 180.753C257.821 170.29 261.874 160.235 269.122 152.688C276.37 145.14 286.253 140.682 296.708 140.244V140.159C286.251 139.721 276.367 135.262 269.119 127.713C261.871 120.163 257.819 110.107 257.808 99.6425C257.241 99.6425 256.675 99.5959 256.108 99.5959C245.338 99.5959 235.009 103.874 227.394 111.488C219.778 119.102 215.5 129.429 215.5 140.198C215.5 150.966 219.778 161.293 227.394 168.907C235.009 176.522 245.338 180.799 256.108 180.799Z" fill="#FF9513" fill-opacity="0.36"/>
<path d="M343.542 424.402C342.975 424.402 342.409 424.402 341.842 424.402C341.831 434.868 337.778 444.925 330.528 452.475C323.278 460.024 313.392 464.482 302.934 464.919V464.957H384.15C384.14 454.196 379.857 443.88 372.242 436.275C364.627 428.671 354.304 424.4 343.542 424.402Z" fill="#FF9513" fill-opacity="0.36"/>
<path d="M257.808 424.441C257.241 424.441 256.675 424.441 256.108 424.441C250.776 424.44 245.495 425.489 240.568 427.529C235.642 429.568 231.165 432.558 227.394 436.328C223.623 440.097 220.632 444.573 218.591 449.498C216.551 454.424 215.5 459.703 215.5 465.035H296.708V464.996C286.244 464.558 276.355 460.093 269.106 452.536C261.857 444.978 257.809 434.912 257.808 424.441Z" fill="#FF9513" fill-opacity="0.36"/>
<path d="M259.221 343.199C258.646 343.199 258.08 343.199 257.513 343.245C257.5 353.709 253.447 363.763 246.199 371.31C238.951 378.858 229.069 383.316 218.613 383.754V383.839C229.07 384.278 238.954 388.736 246.202 396.286C253.45 403.835 257.502 413.891 257.513 424.356C258.08 424.356 258.646 424.402 259.221 424.402C269.991 424.402 280.32 420.125 287.935 412.51C295.551 404.896 299.829 394.569 299.829 383.8C299.829 373.032 295.551 362.705 287.935 355.091C280.32 347.476 269.991 343.199 259.221 343.199Z" fill="#FF9513" fill-opacity="0.36"/>
<path d="M342.137 343.245C341.57 343.245 341.003 343.199 340.429 343.199C329.659 343.199 319.33 347.476 311.715 355.091C304.099 362.705 299.821 373.032 299.821 383.8C299.821 394.569 304.099 404.896 311.715 412.51C319.33 420.125 329.659 424.402 340.429 424.402C341.003 424.402 341.57 424.402 342.137 424.356C342.146 413.89 346.198 403.833 353.446 396.284C360.694 388.734 370.579 384.276 381.037 383.839V383.754C370.581 383.318 360.697 378.86 353.449 371.312C346.2 363.764 342.148 353.709 342.137 343.245Z" fill="#FF9513" fill-opacity="0.36"/>
<path d="M256.108 343.198C256.675 343.198 257.241 343.198 257.808 343.152C257.825 332.691 261.88 322.641 269.127 315.097C276.375 307.553 286.255 303.097 296.708 302.659V302.573C286.251 302.135 276.367 297.676 269.119 290.127C261.871 282.578 257.819 272.522 257.808 262.057C257.241 262.057 256.675 262.057 256.108 262.057C250.729 261.983 245.388 262.978 240.396 264.985C235.405 266.992 230.862 269.97 227.031 273.747C223.201 277.525 220.16 282.025 218.084 286.988C216.008 291.95 214.939 297.276 214.939 302.655C214.939 308.034 216.008 313.36 218.084 318.322C220.16 323.285 223.201 327.785 227.031 331.563C230.862 335.34 235.405 338.318 240.396 340.325C245.388 342.332 250.729 343.327 256.108 343.253V343.198Z" fill="#FF9513" fill-opacity="0.36"/>
<path d="M384.15 627.395C384.152 638.162 388.431 648.487 396.047 656.1C403.662 663.713 413.989 667.989 424.758 667.989C425.325 667.989 425.891 667.989 426.458 667.989C426.469 657.525 430.521 647.469 437.769 639.919C445.017 632.37 454.901 627.911 465.358 627.473V627.388C454.901 626.949 445.017 622.49 437.769 614.941C430.521 607.392 426.469 597.336 426.458 586.871C425.891 586.871 425.325 586.832 424.758 586.832C419.426 586.831 414.145 587.881 409.219 589.92C404.292 591.96 399.815 594.95 396.044 598.719C392.273 602.489 389.282 606.964 387.241 611.89C385.201 616.816 384.15 622.095 384.15 627.426V627.395Z" fill="#FF9513" fill-opacity="0.36"/>
<path d="M427.871 505.598C427.296 505.598 426.73 505.598 426.163 505.645C426.15 516.108 422.097 526.162 414.849 533.71C407.601 541.257 397.719 545.715 387.263 546.153V546.238C397.72 546.677 407.604 551.136 414.852 558.685C422.1 566.234 426.152 576.29 426.163 586.755C426.73 586.755 427.296 586.801 427.871 586.801C438.641 586.801 448.97 582.524 456.585 574.909C464.201 567.295 468.479 556.968 468.479 546.2C468.479 535.431 464.201 525.104 456.585 517.49C448.97 509.876 438.641 505.598 427.871 505.598Z" fill="#FF9513" fill-opacity="0.36"/>
<path d="M384.15 465.004C384.152 475.771 388.431 486.096 396.047 493.709C403.662 501.321 413.989 505.598 424.758 505.598C425.325 505.598 425.891 505.598 426.458 505.598C426.469 495.133 430.521 485.077 437.769 477.528C445.017 469.979 454.901 465.52 465.358 465.082V465.035H384.15V465.004Z" fill="#FF9513" fill-opacity="0.36"/>
<path d="M427.871 667.997C427.296 667.997 426.73 667.997 426.163 668.044C426.15 678.507 422.097 688.561 414.849 696.109C407.601 703.656 397.719 708.114 387.263 708.552V708.638C397.719 709.078 407.602 713.537 414.85 721.086C422.097 728.635 426.15 738.69 426.163 749.154C426.73 749.154 427.296 749.201 427.871 749.201C438.641 749.201 448.97 744.923 456.585 737.309C464.201 729.694 468.479 719.367 468.479 708.599C468.479 697.831 464.201 687.503 456.585 679.889C448.97 672.275 438.641 667.997 427.871 667.997Z" fill="#FF9513" fill-opacity="0.36"/>
<path d="M427.871 830.396C427.296 830.396 426.73 830.396 426.163 830.443C426.152 840.907 422.1 850.962 414.851 858.51C407.603 866.058 397.719 870.515 387.263 870.952V871.045C397.719 871.481 407.603 875.938 414.851 883.486C422.1 891.034 426.152 901.089 426.163 911.553C426.73 911.553 427.296 911.6 427.871 911.6C438.641 911.6 448.97 907.322 456.585 899.708C464.201 892.094 468.479 881.766 468.479 870.998C468.479 860.23 464.201 849.903 456.585 842.288C448.97 834.674 438.641 830.396 427.871 830.396Z" fill="#FF9513" fill-opacity="0.36"/>
<path d="M424.758 830.396C425.325 830.396 425.891 830.396 426.458 830.357C426.469 819.893 430.521 809.837 437.769 802.287C445.017 794.738 454.901 790.279 465.358 789.841V789.756C454.901 789.318 445.017 784.859 437.769 777.309C430.521 769.76 426.469 759.704 426.458 749.239C425.891 749.239 425.325 749.239 424.758 749.239C419.426 749.238 414.145 750.288 409.219 752.327C404.292 754.367 399.815 757.357 396.044 761.126C392.273 764.896 389.282 769.371 387.241 774.297C385.201 779.223 384.15 784.502 384.15 789.833C384.16 800.595 388.443 810.912 396.058 818.518C403.672 826.124 413.995 830.396 424.758 830.396Z" fill="#FF9513" fill-opacity="0.36"/>
<path d="M424.758 992.796C425.325 992.796 425.891 992.795 426.458 992.757C426.469 982.292 430.521 972.236 437.769 964.687C445.017 957.137 454.901 952.679 465.358 952.24V952.155C454.901 951.717 445.017 947.258 437.769 939.709C430.521 932.159 426.469 922.103 426.458 911.639C425.891 911.639 425.325 911.639 424.758 911.639C413.989 911.639 403.662 915.915 396.047 923.528C388.431 931.14 384.152 941.466 384.15 952.233C384.158 962.995 388.44 973.313 396.055 980.92C403.67 988.526 413.994 992.798 424.758 992.796Z" fill="#FF9513" fill-opacity="0.36"/>
<path d="M259.221 505.598C258.646 505.598 258.08 505.598 257.513 505.645C257.5 516.108 253.447 526.162 246.199 533.71C238.951 541.257 229.069 545.715 218.613 546.153V546.238C229.07 546.677 238.954 551.136 246.202 558.685C253.45 566.234 257.502 576.29 257.513 586.755C258.08 586.755 258.646 586.801 259.221 586.801C269.991 586.801 280.32 582.524 287.935 574.909C295.551 567.295 299.829 556.968 299.829 546.2C299.829 535.431 295.551 525.104 287.935 517.49C280.32 509.876 269.991 505.598 259.221 505.598Z" fill="#FF9513" fill-opacity="0.36"/>
<path d="M340.429 586.801C341.003 586.801 341.57 586.801 342.137 586.755C342.146 576.29 346.198 566.232 353.446 558.683C360.694 551.133 370.579 546.675 381.037 546.238V546.153C370.581 545.717 360.697 541.26 353.449 533.712C346.2 526.164 342.148 516.108 342.137 505.645C341.57 505.645 341.003 505.598 340.429 505.598C329.659 505.598 319.33 509.876 311.715 517.49C304.099 525.104 299.821 535.431 299.821 546.2C299.821 556.968 304.099 567.295 311.715 574.909C319.33 582.524 329.659 586.801 340.429 586.801Z" fill="#FF9513" fill-opacity="0.36"/>
<path d="M341.842 505.559C342.409 505.559 342.975 505.559 343.542 505.559C354.312 505.559 364.641 501.281 372.256 493.667C379.872 486.053 384.15 475.726 384.15 464.957H302.934V465.004C313.399 465.44 323.291 469.904 330.541 477.462C337.792 485.019 341.841 495.086 341.842 505.559Z" fill="#FF9513" fill-opacity="0.36"/>
<path d="M256.108 505.598C256.675 505.598 257.241 505.598 257.808 505.598C257.819 495.133 261.871 485.077 269.119 477.528C276.367 469.979 286.251 465.52 296.708 465.082V465.035H215.5C215.51 475.796 219.793 486.114 227.407 493.72C235.022 501.326 245.345 505.598 256.108 505.598Z" fill="#FF9513" fill-opacity="0.36"/>
<path d="M259.221 667.997C258.646 667.997 258.08 667.997 257.513 668.044C257.5 678.507 253.447 688.561 246.199 696.109C238.951 703.656 229.069 708.114 218.613 708.552V708.638C229.069 709.078 238.952 713.537 246.2 721.086C253.447 728.635 257.5 738.69 257.513 749.154C258.08 749.154 258.646 749.201 259.221 749.201C269.991 749.201 280.32 744.923 287.935 737.309C295.551 729.694 299.829 719.367 299.829 708.599C299.829 697.831 295.551 687.503 287.935 679.889C280.32 672.275 269.991 667.997 259.221 667.997Z" fill="#FF9513" fill-opacity="0.36"/>
<path d="M340.429 749.201C341.003 749.201 341.57 749.201 342.137 749.154C342.148 738.689 346.2 728.633 353.448 721.084C360.696 713.535 370.58 709.076 381.037 708.638V708.552C370.581 708.116 360.697 703.659 353.449 696.111C346.2 688.563 342.148 678.508 342.137 668.044C341.57 668.044 341.003 667.997 340.429 667.997C335.096 667.997 329.816 669.047 324.889 671.088C319.962 673.128 315.486 676.119 311.715 679.889C307.944 683.659 304.953 688.135 302.912 693.061C300.871 697.987 299.821 703.267 299.821 708.599C299.821 713.931 300.871 719.21 302.912 724.136C304.953 729.063 307.944 733.538 311.715 737.309C315.486 741.079 319.962 744.07 324.889 746.11C329.816 748.15 335.096 749.201 340.429 749.201Z" fill="#FF9513" fill-opacity="0.36"/>
<path d="M341.842 667.958C342.409 667.958 342.975 667.958 343.542 667.958C348.921 668.033 354.262 667.038 359.254 665.031C364.245 663.024 368.788 660.045 372.619 656.268C376.449 652.491 379.49 647.99 381.566 643.028C383.642 638.065 384.711 632.739 384.711 627.36C384.711 621.981 383.642 616.656 381.566 611.693C379.49 606.731 376.449 602.23 372.619 598.453C368.788 594.676 364.245 591.697 359.254 589.69C354.262 587.683 348.921 586.688 343.542 586.763C342.975 586.763 342.409 586.762 341.842 586.801C341.831 597.267 337.778 607.325 330.528 614.874C323.278 622.423 313.392 626.881 302.934 627.318V627.403C313.399 627.84 323.291 632.303 330.541 639.861C337.792 647.419 341.841 657.486 341.842 667.958Z" fill="#FF9513" fill-opacity="0.36"/>
<path d="M256.108 667.997C256.675 667.997 257.241 667.997 257.808 667.997C257.819 657.532 261.871 647.476 269.119 639.927C276.367 632.378 286.251 627.919 296.708 627.481V627.395C286.251 626.957 276.367 622.498 269.119 614.949C261.871 607.4 257.819 597.344 257.808 586.879C257.241 586.879 256.675 586.84 256.108 586.84C250.729 586.766 245.388 587.761 240.396 589.768C235.405 591.775 230.862 594.753 227.031 598.53C223.201 602.308 220.16 606.808 218.084 611.771C216.008 616.733 214.939 622.059 214.939 627.438C214.939 632.817 216.008 638.143 218.084 643.105C220.16 648.068 223.201 652.568 227.031 656.345C230.862 660.123 235.405 663.101 240.396 665.108C245.388 667.115 250.729 668.11 256.108 668.036V667.997Z" fill="#FF9513" fill-opacity="0.36"/>
<path d="M259.221 830.396C258.646 830.396 258.08 830.396 257.513 830.443C257.502 840.907 253.45 850.962 246.201 858.51C238.953 866.058 229.069 870.515 218.613 870.952V871.045C229.069 871.481 238.953 875.938 246.201 883.486C253.45 891.034 257.502 901.089 257.513 911.553C258.08 911.553 258.646 911.6 259.221 911.6C269.991 911.6 280.32 907.322 287.935 899.708C295.551 892.094 299.829 881.766 299.829 870.998C299.829 860.23 295.551 849.903 287.935 842.288C280.32 834.674 269.991 830.396 259.221 830.396Z" fill="#FF9513" fill-opacity="0.36"/>
<path d="M340.429 911.6C341.003 911.6 341.57 911.6 342.137 911.553C342.148 901.089 346.2 891.034 353.449 883.486C360.697 875.938 370.581 871.481 381.037 871.045V870.952C370.581 870.515 360.697 866.058 353.449 858.51C346.2 850.962 342.148 840.907 342.137 830.443C341.57 830.443 341.003 830.396 340.429 830.396C329.659 830.396 319.33 834.674 311.715 842.288C304.099 849.903 299.821 860.23 299.821 870.998C299.821 881.766 304.099 892.094 311.715 899.708C319.33 907.322 329.659 911.6 340.429 911.6Z" fill="#FF9513" fill-opacity="0.36"/>
<path d="M341.842 830.357C342.409 830.357 342.975 830.396 343.542 830.396C348.921 830.471 354.262 829.475 359.254 827.469C364.245 825.462 368.788 822.483 372.619 818.706C376.449 814.929 379.49 810.428 381.566 805.465C383.642 800.503 384.711 795.177 384.711 789.798C384.711 784.419 383.642 779.094 381.566 774.131C379.49 769.169 376.449 764.668 372.619 760.891C368.788 757.114 364.245 754.135 359.254 752.128C354.262 750.121 348.921 749.126 343.542 749.201C342.975 749.201 342.409 749.201 341.842 749.201C341.831 759.666 337.778 769.724 330.528 777.273C323.278 784.823 313.392 789.281 302.934 789.717V789.802C313.399 790.239 323.291 794.702 330.541 802.26C337.792 809.818 341.841 819.885 341.842 830.357Z" fill="#FF9513" fill-opacity="0.36"/>
<path d="M256.108 830.396C256.675 830.396 257.241 830.396 257.808 830.357C257.819 819.893 261.871 809.837 269.119 802.287C276.367 794.738 286.251 790.279 296.708 789.841V789.756C286.251 789.318 276.367 784.859 269.119 777.309C261.871 769.76 257.819 759.704 257.808 749.239C257.241 749.239 256.675 749.239 256.108 749.239C250.729 749.165 245.388 750.16 240.396 752.167C235.405 754.174 230.862 757.152 227.031 760.93C223.201 764.707 220.16 769.207 218.084 774.17C216.008 779.133 214.939 784.458 214.939 789.837C214.939 795.216 216.008 800.542 218.084 805.504C220.16 810.467 223.201 814.968 227.031 818.745C230.862 822.522 235.405 825.501 240.396 827.507C245.388 829.514 250.729 830.509 256.108 830.435V830.396Z" fill="#FF9513" fill-opacity="0.36"/>
<path d="M341.842 992.757C342.409 992.757 342.975 992.796 343.542 992.796C348.921 992.87 354.262 991.875 359.254 989.868C364.245 987.861 368.788 984.882 372.619 981.105C376.449 977.328 379.49 972.827 381.566 967.865C383.642 962.902 384.711 957.577 384.711 952.198C384.711 946.819 383.642 941.493 381.566 936.53C379.49 931.568 376.449 927.067 372.619 923.29C368.788 919.513 364.245 916.534 359.254 914.527C354.262 912.521 348.921 911.525 343.542 911.6C342.975 911.6 342.409 911.6 341.842 911.6C341.831 922.066 337.778 932.123 330.528 939.672C323.278 947.222 313.392 951.68 302.934 952.116V952.202C313.399 952.638 323.291 957.102 330.541 964.659C337.792 972.217 341.841 982.284 341.842 992.757Z" fill="#FF9513" fill-opacity="0.36"/>
<path d="M256.108 992.795C256.675 992.795 257.241 992.795 257.808 992.757C257.819 982.292 261.871 972.236 269.119 964.687C276.367 957.137 286.251 952.679 296.708 952.24V952.155C286.251 951.717 276.367 947.258 269.119 939.709C261.871 932.159 257.819 922.103 257.808 911.639C257.241 911.639 256.675 911.639 256.108 911.639C250.729 911.564 245.388 912.559 240.396 914.566C235.405 916.573 230.862 919.552 227.031 923.329C223.201 927.106 220.16 931.607 218.084 936.569C216.008 941.532 214.939 946.857 214.939 952.236C214.939 957.616 216.008 962.941 218.084 967.904C220.16 972.866 223.201 977.367 227.031 981.144C230.862 984.921 235.405 987.9 240.396 989.907C245.388 991.913 250.729 992.909 256.108 992.834V992.795Z" fill="#FF9513" fill-opacity="0.36"/>
<path d="M174.892 -62.8032C174.325 -62.8032 173.759 -62.8032 173.192 -62.7567C173.181 -52.292 169.129 -42.2358 161.881 -34.6866C154.633 -27.1374 144.749 -22.6785 134.292 -22.2403C134.292 -22.2403 134.292 -22.2403 134.292 -22.1937C144.754 -21.7553 154.643 -17.292 161.892 -9.73618C169.14 -2.18033 173.189 7.88369 173.192 18.3537C173.759 18.3537 174.325 18.4003 174.892 18.4003C185.662 18.4003 195.991 14.1226 203.606 6.5083C211.222 -1.10601 215.5 -11.4332 215.5 -22.2015C215.5 -32.9697 211.222 -43.2969 203.606 -50.9112C195.991 -58.5255 185.662 -62.8032 174.892 -62.8032Z" fill="#FF9513" fill-opacity="0.36"/>
<path d="M89.158 -62.7567C88.5913 -62.7567 88.0247 -62.8032 87.458 -62.8032C76.6881 -62.8032 66.3593 -58.5255 58.7438 -50.9112C51.1283 -43.2969 46.85 -32.9697 46.85 -22.2015C46.85 -11.4332 51.1283 -1.10601 58.7438 6.5083C66.3593 14.1226 76.6881 18.4003 87.458 18.4003C88.0247 18.4003 88.5913 18.4003 89.158 18.3537C89.1709 7.8904 93.224 -2.16383 100.472 -9.71137C107.72 -17.2589 117.603 -21.7168 128.058 -22.1549V-22.2403C117.601 -22.6785 107.717 -27.1374 100.469 -34.6866C93.2211 -42.2358 89.1689 -52.292 89.158 -62.7567Z" fill="#FF9513" fill-opacity="0.36"/>
<path d="M174.892 99.5959C174.325 99.5959 173.759 99.5959 173.192 99.6425C173.181 110.107 169.129 120.163 161.881 127.713C154.633 135.262 144.749 139.721 134.292 140.159C134.292 140.159 134.292 140.159 134.292 140.198C134.292 140.236 134.292 140.198 134.292 140.244C144.747 140.682 154.63 145.14 161.878 152.688C169.126 160.235 173.179 170.29 173.192 180.753C173.759 180.753 174.325 180.799 174.892 180.799C185.662 180.799 195.991 176.522 203.606 168.907C211.222 161.293 215.5 150.966 215.5 140.198C215.5 129.429 211.222 119.102 203.606 111.488C195.991 103.874 185.662 99.5959 174.892 99.5959Z" fill="#FF9513" fill-opacity="0.36"/>
<path d="M89.158 99.6425C88.5913 99.6425 88.0247 99.5959 87.458 99.5959C76.6881 99.5959 66.3593 103.874 58.7438 111.488C51.1283 119.102 46.85 129.429 46.85 140.198C46.85 150.966 51.1283 161.293 58.7438 168.907C66.3593 176.522 76.6881 180.799 87.458 180.799C88.0247 180.799 88.5913 180.799 89.158 180.753C89.1709 170.29 93.224 160.235 100.472 152.688C107.72 145.14 117.603 140.682 128.058 140.244V140.159C117.601 139.721 107.717 135.262 100.469 127.713C93.2211 120.163 89.1689 110.107 89.158 99.6425Z" fill="#FF9513" fill-opacity="0.36"/>
<path d="M90.5708 18.4001C89.9963 18.4001 89.4297 18.4001 88.863 18.439C88.8522 28.9036 84.7999 38.9598 77.5519 46.509C70.3038 54.0582 60.42 58.5171 49.9629 58.9553V59.0407C60.42 59.4789 70.3038 63.9378 77.5519 71.487C84.7999 79.0362 88.8522 89.0924 88.863 99.5571C89.4297 99.5571 89.9963 99.5571 90.5708 99.5571C101.242 99.4095 111.427 95.0673 118.921 87.4698C126.416 79.8722 130.617 69.6302 130.617 58.9592C130.617 48.2882 126.416 38.0461 118.921 30.4486C111.427 22.8511 101.242 18.5089 90.5708 18.3613V18.4001Z" fill="#FF9513" fill-opacity="0.36"/>
<path d="M171.779 99.596C172.353 99.596 172.92 99.596 173.487 99.596C173.496 89.1308 177.548 79.0735 184.796 71.5239C192.044 63.9743 201.929 59.5159 212.387 59.0796V58.9399C201.929 58.5036 192.044 54.0453 184.796 46.4956C177.548 38.946 173.496 28.8887 173.487 18.4235C172.92 18.4235 172.353 18.3847 171.779 18.3847C166.4 18.3104 161.059 19.3055 156.068 21.3124C151.076 23.3192 146.533 26.2978 142.703 30.0751C138.872 33.8523 135.831 38.3529 133.755 43.3154C131.679 48.278 130.61 53.6035 130.61 58.9826C130.61 64.3617 131.679 69.6873 133.755 74.6498C135.831 79.6123 138.872 84.1129 142.703 87.8902C146.533 91.6674 151.076 94.646 156.068 96.6528C161.059 98.6597 166.4 99.6548 171.779 99.5805V99.596Z" fill="#FF9513" fill-opacity="0.36"/>
<path d="M215.5 302.597C215.5 297.265 214.45 291.986 212.409 287.06C210.368 282.135 207.377 277.659 203.606 273.89C199.835 270.12 195.358 267.13 190.432 265.091C185.505 263.051 180.224 262.002 174.892 262.003C174.325 262.003 173.759 262.003 173.192 262.003C173.181 272.468 169.129 282.524 161.881 290.073C154.633 297.622 144.749 302.081 134.292 302.519C134.292 302.519 134.292 302.519 134.292 302.566C144.761 303.005 154.655 307.473 161.905 315.037C169.155 322.602 173.199 332.675 173.192 343.152C173.759 343.152 174.325 343.199 174.892 343.199C185.662 343.199 195.991 338.921 203.606 331.307C211.222 323.692 215.5 313.365 215.5 302.597Z" fill="#FF9513" fill-opacity="0.36"/>
<path d="M90.5708 180.799C89.9964 180.799 89.4297 180.799 88.863 180.846C88.8502 191.309 84.7971 201.363 77.5492 208.911C70.3014 216.458 60.4186 220.916 49.9629 221.354V221.44C60.42 221.878 70.3038 226.337 77.5519 233.886C84.7999 241.435 88.8522 251.492 88.863 261.956C89.4297 261.956 89.9964 262.003 90.5708 262.003C101.341 262.003 111.67 257.725 119.285 250.111C126.901 242.497 131.179 232.169 131.179 221.401C131.179 210.633 126.901 200.306 119.285 192.691C111.67 185.077 101.341 180.799 90.5708 180.799Z" fill="#FF9513" fill-opacity="0.36"/>
<path d="M171.779 262.003C172.354 262.003 172.92 262.003 173.487 261.956C173.496 251.491 177.548 241.434 184.796 233.884C192.044 226.335 201.929 221.876 212.387 221.44V221.354C201.931 220.918 192.047 216.461 184.799 208.913C177.55 201.365 173.498 191.31 173.487 180.846C172.92 180.846 172.354 180.799 171.779 180.799C161.009 180.799 150.68 185.077 143.065 192.691C135.449 200.306 131.171 210.633 131.171 221.401C131.171 232.169 135.449 242.497 143.065 250.111C150.68 257.725 161.009 262.003 171.779 262.003Z" fill="#FF9513" fill-opacity="0.36"/>
<path d="M174.892 424.402C174.325 424.402 173.759 424.402 173.192 424.402C173.181 434.867 169.129 444.923 161.881 452.472C154.633 460.021 144.749 464.48 134.292 464.919C134.292 464.919 134.292 464.918 134.292 464.957H215.5C215.49 454.196 211.207 443.88 203.592 436.275C195.977 428.671 185.654 424.4 174.892 424.402Z" fill="#FF9513" fill-opacity="0.36"/>
<path d="M89.158 424.441C88.5913 424.441 88.0247 424.441 87.458 424.441C82.1256 424.44 76.8453 425.489 71.9185 427.529C66.9918 429.568 62.5152 432.558 58.7443 436.328C54.9734 440.097 51.9821 444.573 49.9412 449.498C47.9004 454.424 46.85 459.703 46.85 465.035H128.058V464.996C117.594 464.558 107.705 460.093 100.456 452.536C93.2066 444.978 89.1589 434.912 89.158 424.441Z" fill="#FF9513" fill-opacity="0.36"/>
<path d="M88.863 424.356C89.4297 424.356 89.9964 424.402 90.5708 424.402C101.341 424.402 111.67 420.125 119.285 412.51C126.901 404.896 131.179 394.569 131.179 383.8C131.179 373.032 126.901 362.705 119.285 355.091C111.67 347.476 101.341 343.199 90.5708 343.199C89.9964 343.199 89.4297 343.199 88.863 343.245C88.8502 353.709 84.7971 363.763 77.5492 371.31C70.3014 378.858 60.4186 383.316 49.9629 383.754V383.839C60.42 384.278 70.3038 388.736 77.5519 396.286C84.7999 403.835 88.8522 413.891 88.863 424.356Z" fill="#FF9513" fill-opacity="0.36"/>
<path d="M171.779 424.402C172.354 424.402 172.92 424.402 173.487 424.356C173.496 413.89 177.548 403.833 184.796 396.284C192.044 388.734 201.929 384.276 212.387 383.839V383.754C201.931 383.318 192.047 378.86 184.799 371.312C177.55 363.764 173.498 353.709 173.487 343.245C172.92 343.245 172.354 343.199 171.779 343.199C161.009 343.199 150.68 347.476 143.065 355.091C135.449 362.705 131.171 373.032 131.171 383.8C131.171 394.569 135.449 404.896 143.065 412.51C150.68 420.125 161.009 424.402 171.779 424.402Z" fill="#FF9513" fill-opacity="0.36"/>
<path d="M87.4581 343.198C88.0248 343.198 88.5914 343.198 89.1581 343.152C89.1749 332.691 93.2299 322.641 100.477 315.097C107.725 307.553 117.605 303.097 128.058 302.659V302.573C117.601 302.135 107.717 297.676 100.469 290.127C93.2212 282.578 89.1689 272.522 89.1581 262.057C88.5914 262.057 88.0248 262.057 87.4581 262.057C82.0786 261.983 76.7379 262.978 71.7464 264.985C66.7549 266.992 62.212 269.97 58.3816 273.747C54.5512 277.525 51.5096 282.025 49.4336 286.988C47.3577 291.95 46.2886 297.276 46.2886 302.655C46.2886 308.034 47.3577 313.36 49.4336 318.322C51.5096 323.285 54.5512 327.785 58.3816 331.563C62.212 335.34 66.7549 338.318 71.7464 340.325C76.7379 342.332 82.0786 343.327 87.4581 343.253V343.198Z" fill="#FF9513" fill-opacity="0.36"/>
<path d="M6.242 -62.8032C5.6753 -62.8032 5.10865 -62.8032 4.54196 -62.7567C4.53112 -52.292 0.478874 -42.2358 -6.76918 -34.6866C-14.0172 -27.1374 -23.9011 -22.6785 -34.3582 -22.2403C-34.3582 -22.2403 -34.3582 -22.2403 -34.3582 -22.1937C-23.9024 -21.7556 -14.0197 -17.2977 -6.77184 -9.75019C0.476013 -2.20265 4.52913 7.85159 4.54196 18.3149C5.10865 18.3149 5.6753 18.3614 6.242 18.3614C17.0119 18.3614 27.3407 14.0838 34.9562 6.46946C42.5716 -1.14485 46.85 -11.472 46.85 -22.2403C46.85 -33.0086 42.5716 -43.3358 34.9562 -50.9501C27.3407 -58.5644 17.0119 -62.842 6.242 -62.842V-62.8032Z" fill="#FF9513" fill-opacity="0.36"/>
<path d="M6.242 99.5959C5.6753 99.5959 5.10865 99.5959 4.54196 99.6425C4.53112 110.107 0.478874 120.163 -6.76918 127.713C-14.0172 135.262 -23.9011 139.721 -34.3582 140.159C-34.3582 140.159 -34.3582 140.159 -34.3582 140.198C-34.3582 140.236 -34.3582 140.198 -34.3582 140.244C-23.9024 140.682 -14.0197 145.14 -6.77184 152.688C0.476013 160.235 4.52913 170.29 4.54196 180.753C5.10865 180.753 5.6753 180.799 6.242 180.799C17.0119 180.799 27.3407 176.522 34.9562 168.907C42.5716 161.293 46.85 150.966 46.85 140.198C46.85 129.429 42.5716 119.102 34.9562 111.488C27.3407 103.874 17.0119 99.5959 6.242 99.5959Z" fill="#FF9513" fill-opacity="0.36"/>
<path d="M3.12908 99.596C3.70354 99.596 4.2702 99.596 4.83689 99.596C4.8458 89.1308 8.8974 79.0735 16.1458 71.5239C23.3943 63.9743 33.2793 59.5159 43.737 59.0796V58.9399C33.2793 58.5036 23.3943 54.0453 16.1458 46.4956C8.8974 38.946 4.8458 28.8887 4.83689 18.4235C4.2702 18.4235 3.70354 18.3847 3.12908 18.3847C-2.25037 18.3104 -7.59103 19.3055 -12.5825 21.3124C-17.5741 23.3192 -22.117 26.2978 -25.9474 30.0751C-29.7778 33.8523 -32.8193 38.3529 -34.8953 43.3154C-36.9713 48.278 -38.0404 53.6035 -38.0404 58.9826C-38.0404 64.3617 -36.9713 69.6873 -34.8953 74.6498C-32.8193 79.6123 -29.7778 84.1129 -25.9474 87.8902C-22.117 91.6674 -17.5741 94.646 -12.5825 96.6528C-7.59103 98.6597 -2.25037 99.6548 3.12908 99.5805V99.596Z" fill="#FF9513" fill-opacity="0.36"/>
<path d="M6.242 262.003C5.6753 262.003 5.10865 262.003 4.54196 262.003C4.53112 272.467 0.478874 282.524 -6.76918 290.073C-14.0172 297.622 -23.9011 302.081 -34.3582 302.519C-34.3582 302.519 -34.3582 302.519 -34.3582 302.566C-23.9024 303.004 -14.0197 307.462 -6.77184 315.009C0.476013 322.557 4.52913 332.611 4.54196 343.074C5.10865 343.074 5.6753 343.121 6.242 343.121C11.6214 343.195 16.9621 342.2 21.9536 340.193C26.9451 338.186 31.488 335.208 35.3185 331.431C39.1489 327.653 42.1904 323.153 44.2664 318.19C46.3424 313.228 47.4115 307.902 47.4115 302.523C47.4115 297.144 46.3424 291.818 44.2664 286.856C42.1904 281.893 39.1489 277.393 35.3185 273.616C31.488 269.838 26.9451 266.86 21.9536 264.853C16.9621 262.846 11.6214 261.851 6.242 261.925V262.003Z" fill="#FF9513" fill-opacity="0.36"/>
<path d="M3.12914 262.003C3.70359 262.003 4.27025 262.003 4.83694 261.956C4.84586 251.491 8.89745 241.434 16.1459 233.884C23.3944 226.335 33.2793 221.876 43.7371 221.44V221.354C33.2807 220.918 23.3969 216.461 16.1487 208.913C8.90041 201.365 4.84786 191.31 4.83694 180.846C4.27025 180.846 3.70359 180.799 3.12914 180.799C-7.64077 180.799 -17.9696 185.077 -25.585 192.691C-33.2005 200.306 -37.4789 210.633 -37.4789 221.401C-37.4789 232.169 -33.2005 242.497 -25.585 250.111C-17.9696 257.725 -7.64077 262.003 3.12914 262.003Z" fill="#FF9513" fill-opacity="0.36"/>
<path d="M6.242 424.402C5.6753 424.402 5.10865 424.402 4.54196 424.402C4.53112 434.867 0.478874 444.923 -6.76918 452.472C-14.0172 460.021 -23.9011 464.48 -34.3582 464.919C-34.3582 464.919 -34.3582 464.918 -34.3582 464.957H46.8578C46.8475 454.195 42.5633 443.878 34.9471 436.273C27.3308 428.668 17.0058 424.398 6.242 424.402Z" fill="#FF9513" fill-opacity="0.36"/>
<path d="M3.12914 424.402C3.70359 424.402 4.27025 424.402 4.83694 424.356C4.84586 413.89 8.89745 403.833 16.1459 396.284C23.3944 388.734 33.2793 384.276 43.7371 383.839V383.754C33.2807 383.318 23.3969 378.86 16.1487 371.312C8.90041 363.764 4.84786 353.709 4.83694 343.245C4.27025 343.245 3.70359 343.199 3.12914 343.199C-7.64077 343.199 -17.9696 347.476 -25.585 355.091C-33.2005 362.705 -37.4789 373.032 -37.4789 383.8C-37.4789 394.569 -33.2005 404.896 -25.585 412.51C-17.9696 420.125 -7.64077 424.402 3.12914 424.402Z" fill="#FF9513" fill-opacity="0.36"/>
<path d="M174.892 586.801C174.325 586.801 173.759 586.801 173.192 586.84C173.181 597.305 169.129 607.361 161.881 614.91C154.633 622.459 144.749 626.918 134.292 627.356C134.293 627.369 134.293 627.382 134.292 627.395C134.292 627.395 134.292 627.395 134.292 627.442C144.749 627.88 154.633 632.339 161.881 639.888C169.129 647.437 173.181 657.494 173.192 667.958C173.759 667.958 174.325 667.958 174.892 667.958C180.271 668.033 185.612 667.038 190.604 665.031C195.595 663.024 200.138 660.045 203.969 656.268C207.799 652.491 210.84 647.99 212.916 643.028C214.992 638.065 216.061 632.739 216.061 627.36C216.061 621.981 214.992 616.656 212.916 611.693C210.84 606.731 207.799 602.23 203.969 598.453C200.138 594.676 195.595 591.697 190.604 589.69C185.612 587.683 180.271 586.688 174.892 586.763V586.801Z" fill="#FF9513" fill-opacity="0.36"/>
<path d="M88.863 586.739C89.4297 586.739 89.9964 586.786 90.5708 586.786C101.341 586.786 111.67 582.508 119.285 574.894C126.901 567.28 131.179 556.952 131.179 546.184C131.179 535.416 126.901 525.089 119.285 517.474C111.67 509.86 101.341 505.582 90.5708 505.582C89.9964 505.582 89.4297 505.582 88.863 505.629C88.8502 516.092 84.7971 526.146 77.5492 533.694C70.3014 541.242 60.4186 545.699 49.9629 546.137V546.223C60.42 546.661 70.3038 551.12 77.5519 558.669C84.7999 566.218 88.8522 576.275 88.863 586.739Z" fill="#FF9513" fill-opacity="0.36"/>
<path d="M171.779 586.801C172.354 586.801 172.92 586.801 173.487 586.755C173.496 576.29 177.548 566.232 184.796 558.683C192.044 551.133 201.929 546.675 212.387 546.238V546.153C201.931 545.717 192.047 541.26 184.799 533.712C177.55 526.164 173.498 516.108 173.487 505.645C172.92 505.645 172.354 505.598 171.779 505.598C161.009 505.598 150.68 509.876 143.065 517.49C135.449 525.104 131.171 535.431 131.171 546.2C131.171 556.968 135.449 567.295 143.065 574.909C150.68 582.524 161.009 586.801 171.779 586.801Z" fill="#FF9513" fill-opacity="0.36"/>
<path d="M173.192 505.559C173.759 505.559 174.325 505.559 174.892 505.559C185.662 505.559 195.991 501.281 203.606 493.667C211.222 486.053 215.5 475.726 215.5 464.957H134.284C134.284 464.957 134.284 464.957 134.284 465.004C144.749 465.44 154.641 469.904 161.891 477.462C169.142 485.019 173.191 495.086 173.192 505.559Z" fill="#FF9513" fill-opacity="0.36"/>
<path d="M87.458 505.598C88.0247 505.598 88.5913 505.598 89.158 505.598C89.1689 495.133 93.2211 485.077 100.469 477.528C107.717 469.979 117.601 465.52 128.058 465.082V465.035H46.85C46.8603 475.796 51.1431 486.114 58.7575 493.72C66.3718 501.326 76.6948 505.598 87.458 505.598Z" fill="#FF9513" fill-opacity="0.36"/>
<path d="M174.892 749.201C174.325 749.201 173.759 749.201 173.192 749.201C173.181 759.665 169.129 769.721 161.881 777.271C154.633 784.82 144.749 789.279 134.292 789.717C134.292 789.717 134.292 789.717 134.292 789.763C144.749 790.202 154.633 794.661 161.881 802.21C169.129 809.759 173.181 819.815 173.192 830.28C173.759 830.28 174.325 830.319 174.892 830.319C180.271 830.393 185.612 829.398 190.604 827.391C195.595 825.384 200.138 822.406 203.969 818.628C207.799 814.851 210.84 810.35 212.916 805.388C214.992 800.425 216.061 795.1 216.061 789.721C216.061 784.342 214.992 779.016 212.916 774.054C210.84 769.091 207.799 764.59 203.969 760.813C200.138 757.036 195.595 754.057 190.604 752.051C185.612 750.044 180.271 749.049 174.892 749.123V749.201Z" fill="#FF9513" fill-opacity="0.36"/>
<path d="M89.1581 749.239C88.5914 749.239 88.0248 749.239 87.4581 749.239C82.0786 749.165 76.7379 750.16 71.7464 752.167C66.7549 754.174 62.212 757.152 58.3816 760.93C54.5512 764.707 51.5096 769.207 49.4336 774.17C47.3577 779.133 46.2886 784.458 46.2886 789.837C46.2886 795.216 47.3577 800.542 49.4336 805.504C51.5096 810.467 54.5512 814.968 58.3816 818.745C62.212 822.522 66.7549 825.501 71.7464 827.507C76.7379 829.514 82.0786 830.509 87.4581 830.435C88.0248 830.435 88.5914 830.435 89.1581 830.396C89.1689 819.932 93.2212 809.875 100.469 802.326C107.717 794.777 117.601 790.318 128.058 789.88V789.795C117.595 789.356 107.705 784.892 100.456 777.334C93.2067 769.777 89.1589 759.711 89.1581 749.239Z" fill="#FF9513" fill-opacity="0.36"/>
<path d="M90.5708 667.997C89.9964 667.997 89.4297 667.997 88.863 668.044C88.8502 678.507 84.7971 688.561 77.5492 696.109C70.3014 703.656 60.4186 708.114 49.9629 708.552V708.638C60.4193 709.078 70.302 713.537 77.5497 721.086C84.7973 728.635 88.8503 738.69 88.863 749.154C89.4297 749.154 89.9964 749.201 90.5708 749.201C101.341 749.201 111.67 744.923 119.285 737.309C126.901 729.694 131.179 719.367 131.179 708.599C131.179 697.831 126.901 687.503 119.285 679.889C111.67 672.275 101.341 667.997 90.5708 667.997Z" fill="#FF9513" fill-opacity="0.36"/>
<path d="M171.779 749.201C172.354 749.201 172.92 749.201 173.487 749.154C173.498 738.689 177.55 728.633 184.798 721.084C192.046 713.535 201.93 709.076 212.387 708.638V708.552C201.931 708.116 192.047 703.659 184.799 696.111C177.55 688.563 173.498 678.508 173.487 668.044C172.92 668.044 172.354 667.997 171.779 667.997C166.446 667.997 161.166 669.047 156.239 671.088C151.312 673.128 146.836 676.119 143.065 679.889C139.294 683.659 136.303 688.135 134.262 693.061C132.221 697.987 131.171 703.267 131.171 708.599C131.171 713.931 132.221 719.21 134.262 724.136C136.303 729.063 139.294 733.538 143.065 737.309C146.836 741.079 151.312 744.07 156.239 746.11C161.166 748.15 166.446 749.201 171.779 749.201Z" fill="#FF9513" fill-opacity="0.36"/>
<path d="M87.4581 667.997C88.0248 667.997 88.5914 667.997 89.1581 667.997C89.1689 657.532 93.2212 647.476 100.469 639.927C107.717 632.378 117.601 627.919 128.058 627.481V627.395C117.601 626.957 107.717 622.498 100.469 614.949C93.2212 607.4 89.1689 597.344 89.1581 586.879C88.5914 586.879 88.0248 586.84 87.4581 586.84C82.0786 586.766 76.7379 587.761 71.7464 589.768C66.7549 591.775 62.212 594.753 58.3816 598.53C54.5512 602.308 51.5096 606.808 49.4336 611.771C47.3577 616.733 46.2886 622.059 46.2886 627.438C46.2886 632.817 47.3577 638.143 49.4336 643.105C51.5096 648.068 54.5512 652.568 58.3816 656.345C62.212 660.123 66.7549 663.101 71.7464 665.108C76.7379 667.115 82.0786 668.11 87.4581 668.036V667.997Z" fill="#FF9513" fill-opacity="0.36"/>
<path d="M174.892 911.6C174.325 911.6 173.759 911.6 173.192 911.6C173.181 922.064 169.129 932.121 161.881 939.67C154.633 947.219 144.749 951.678 134.292 952.116C134.292 952.116 134.292 952.116 134.292 952.163C134.293 952.176 134.293 952.189 134.292 952.202C144.749 952.64 154.633 957.099 161.881 964.648C169.129 972.197 173.181 982.253 173.192 992.718C173.759 992.718 174.325 992.757 174.892 992.757C180.271 992.831 185.612 991.836 190.604 989.829C195.595 987.822 200.138 984.844 203.969 981.066C207.799 977.289 210.84 972.789 212.916 967.826C214.992 962.864 216.061 957.538 216.061 952.159C216.061 946.78 214.992 941.454 212.916 936.492C210.84 931.529 207.799 927.029 203.969 923.251C200.138 919.474 195.595 916.495 190.604 914.489C185.612 912.482 180.271 911.487 174.892 911.561V911.6Z" fill="#FF9513" fill-opacity="0.36"/>
<path d="M89.1581 911.639C88.5914 911.639 88.0248 911.639 87.4581 911.639C82.0786 911.564 76.7379 912.559 71.7464 914.566C66.7549 916.573 62.212 919.552 58.3816 923.329C54.5512 927.106 51.5096 931.607 49.4336 936.569C47.3577 941.532 46.2886 946.857 46.2886 952.236C46.2886 957.616 47.3577 962.941 49.4336 967.904C51.5096 972.866 54.5512 977.367 58.3816 981.144C62.212 984.921 66.7549 987.9 71.7464 989.907C76.7379 991.913 82.0786 992.909 87.4581 992.834C88.0248 992.834 88.5914 992.834 89.1581 992.795C89.1689 982.331 93.2212 972.275 100.469 964.725C107.717 957.176 117.601 952.717 128.058 952.279V952.194C117.595 951.755 107.705 947.291 100.456 939.733C93.2067 932.176 89.1589 922.11 89.1581 911.639Z" fill="#FF9513" fill-opacity="0.36"/>
<path d="M90.5708 830.396C89.9964 830.396 89.4297 830.396 88.863 830.443C88.8521 840.907 84.7995 850.962 77.5513 858.51C70.303 866.058 60.4193 870.515 49.9629 870.952V871.045C60.4193 871.481 70.303 875.938 77.5513 883.486C84.7995 891.034 88.8521 901.089 88.863 911.553C89.4297 911.553 89.9964 911.6 90.5708 911.6C101.341 911.6 111.67 907.322 119.285 899.708C126.901 892.094 131.179 881.766 131.179 870.998C131.179 860.23 126.901 849.903 119.285 842.288C111.67 834.674 101.341 830.396 90.5708 830.396Z" fill="#FF9513" fill-opacity="0.36"/>
<path d="M171.779 911.6C172.354 911.6 172.92 911.6 173.487 911.553C173.498 901.089 177.55 891.034 184.799 883.486C192.047 875.938 201.931 871.481 212.387 871.045V870.952C201.931 870.515 192.047 866.058 184.799 858.51C177.55 850.962 173.498 840.907 173.487 830.443C172.92 830.443 172.354 830.396 171.779 830.396C161.009 830.396 150.68 834.674 143.065 842.288C135.449 849.903 131.171 860.23 131.171 870.998C131.171 881.766 135.449 892.094 143.065 899.708C150.68 907.322 161.009 911.6 171.779 911.6Z" fill="#FF9513" fill-opacity="0.36"/>
<path d="M6.242 586.801C5.6753 586.801 5.10865 586.801 4.54196 586.84C4.53112 597.305 0.478874 607.361 -6.76918 614.91C-14.0172 622.459 -23.9011 626.918 -34.3582 627.356C-34.3574 627.369 -34.3574 627.382 -34.3582 627.395C-34.3582 627.395 -34.3582 627.395 -34.3582 627.442C-23.9011 627.88 -14.0172 632.339 -6.76918 639.888C0.478874 647.437 4.53112 657.494 4.54196 667.958C5.10865 667.958 5.6753 667.958 6.242 667.958C11.6214 668.033 16.9621 667.038 21.9536 665.031C26.9451 663.024 31.488 660.045 35.3185 656.268C39.1489 652.491 42.1904 647.99 44.2664 643.028C46.3424 638.065 47.4115 632.739 47.4115 627.36C47.4115 621.981 46.3424 616.656 44.2664 611.693C42.1904 606.731 39.1489 602.23 35.3185 598.453C31.488 594.676 26.9451 591.697 21.9536 589.69C16.9621 587.683 11.6214 586.688 6.242 586.763V586.801Z" fill="#FF9513" fill-opacity="0.36"/>
<path d="M4.83694 505.645C4.27025 505.645 3.70359 505.598 3.12914 505.598C-7.64077 505.598 -17.9696 509.876 -25.585 517.49C-33.2005 525.104 -37.4789 535.431 -37.4789 546.2C-37.4789 556.968 -33.2005 567.295 -25.585 574.909C-17.9696 582.524 -7.64077 586.801 3.12914 586.801C3.70359 586.801 4.27025 586.801 4.83694 586.755C4.84586 576.29 8.89745 566.232 16.1459 558.683C23.3944 551.133 33.2793 546.675 43.7371 546.238V546.153C33.2807 545.717 23.3969 541.26 16.1487 533.712C8.90041 526.164 4.84786 516.108 4.83694 505.645Z" fill="#FF9513" fill-opacity="0.36"/>
<path d="M4.54192 505.559C5.10861 505.559 5.67526 505.559 6.24195 505.559C17.0119 505.559 27.3407 501.281 34.9561 493.667C42.5716 486.053 46.85 475.726 46.85 464.957H-34.366C-34.366 464.957 -34.366 464.957 -34.366 465.004C-23.9008 465.44 -14.0093 469.904 -6.75861 477.462C0.492119 485.019 4.541 495.086 4.54192 505.559Z" fill="#FF9513" fill-opacity="0.36"/>
<path d="M6.242 749.201C5.6753 749.201 5.10865 749.201 4.54196 749.201C4.53112 759.665 0.478874 769.721 -6.76918 777.271C-14.0172 784.82 -23.9011 789.279 -34.3582 789.717C-34.3582 789.717 -34.3582 789.717 -34.3582 789.763C-23.9011 790.202 -14.0172 794.661 -6.76918 802.21C0.478874 809.759 4.53112 819.815 4.54196 830.28C5.10865 830.28 5.6753 830.319 6.242 830.319C11.6214 830.393 16.9621 829.398 21.9536 827.391C26.9451 825.384 31.488 822.406 35.3185 818.628C39.1489 814.851 42.1904 810.35 44.2664 805.388C46.3424 800.425 47.4115 795.1 47.4115 789.721C47.4115 784.342 46.3424 779.016 44.2664 774.054C42.1904 769.091 39.1489 764.59 35.3185 760.813C31.488 757.036 26.9451 754.057 21.9536 752.051C16.9621 750.044 11.6214 749.049 6.242 749.123V749.201Z" fill="#FF9513" fill-opacity="0.36"/>
<path d="M3.12914 749.201C3.70359 749.201 4.27025 749.201 4.83694 749.154C4.84777 738.689 8.90003 728.633 16.1481 721.084C23.3961 713.535 33.28 709.076 43.7371 708.638V708.552C33.2807 708.116 23.3969 703.659 16.1487 696.111C8.90041 688.563 4.84786 678.508 4.83694 668.044C4.27025 668.044 3.70359 667.997 3.12914 667.997C-7.64077 667.997 -17.9696 672.275 -25.585 679.889C-33.2005 687.503 -37.4789 697.831 -37.4789 708.599C-37.4789 719.367 -33.2005 729.694 -25.585 737.309C-17.9696 744.923 -7.64077 749.201 3.12914 749.201Z" fill="#FF9513" fill-opacity="0.36"/>
<path d="M6.242 911.6C5.6753 911.6 5.10865 911.6 4.54196 911.6C4.53112 922.064 0.478874 932.121 -6.76918 939.67C-14.0172 947.219 -23.9011 951.678 -34.3582 952.116C-34.3582 952.116 -34.3582 952.116 -34.3582 952.163C-34.3574 952.176 -34.3574 952.189 -34.3582 952.202C-23.9011 952.64 -14.0172 957.099 -6.76918 964.648C0.478874 972.197 4.53112 982.253 4.54196 992.718C5.10865 992.718 5.6753 992.757 6.242 992.757C11.6214 992.831 16.9621 991.836 21.9536 989.829C26.9451 987.822 31.488 984.844 35.3185 981.066C39.1489 977.289 42.1904 972.789 44.2664 967.826C46.3424 962.864 47.4115 957.538 47.4115 952.159C47.4115 946.78 46.3424 941.454 44.2664 936.492C42.1904 931.529 39.1489 927.029 35.3185 923.251C31.488 919.474 26.9451 916.495 21.9536 914.489C16.9621 912.482 11.6214 911.487 6.242 911.561V911.6Z" fill="#FF9513" fill-opacity="0.36"/>
<path d="M3.12914 911.6C3.70359 911.6 4.27025 911.6 4.83694 911.553C4.84786 901.089 8.90041 891.034 16.1487 883.486C23.3969 875.938 33.2807 871.481 43.7371 871.045V870.952C33.2807 870.515 23.3969 866.058 16.1487 858.51C8.90041 850.962 4.84786 840.907 4.83694 830.443C4.27025 830.443 3.70359 830.396 3.12914 830.396C-7.64077 830.396 -17.9696 834.674 -25.585 842.288C-33.2005 849.903 -37.4789 860.23 -37.4789 870.998C-37.4789 881.766 -33.2005 892.094 -25.585 899.708C-17.9696 907.322 -7.64077 911.6 3.12914 911.6Z" fill="#FF9513" fill-opacity="0.36"/>
</g>
</g>
<g style="mix-blend-mode:hard-light" clip-path="url(#clip3_377_43979)">
<g style="mix-blend-mode:luminosity" clip-path="url(#clip4_377_43979)">
<path d="M1760.85 -1264.7C1768.57 -1256.99 1774.69 -1247.85 1778.87 -1237.78C1783.05 -1227.72 1785.2 -1216.93 1785.2 -1206.04C1785.2 -1195.14 1783.05 -1184.35 1778.87 -1174.29C1774.69 -1164.22 1768.57 -1155.08 1760.85 -1147.37L416.096 194.751C408.377 202.454 399.214 208.565 389.129 212.735C379.044 216.904 368.235 219.05 357.319 219.05C346.403 219.05 335.593 216.904 325.508 212.735C315.423 208.565 306.26 202.454 298.541 194.751C290.822 187.047 284.699 177.901 280.522 167.836C276.344 157.771 274.194 146.983 274.194 136.088C274.194 125.193 276.344 114.405 280.522 104.34C284.699 94.2747 290.822 85.129 298.541 77.4254L1643.29 -1264.7C1651.01 -1272.4 1660.17 -1278.51 1670.26 -1282.68C1680.34 -1286.85 1691.15 -1289 1702.07 -1289C1712.99 -1289 1723.8 -1286.85 1733.88 -1282.68C1743.97 -1278.51 1753.13 -1272.4 1760.85 -1264.7Z" fill="url(#paint0_linear_377_43979)"/>
<path d="M1767.6 -281.451C1778.82 -270.25 1787.73 -256.952 1793.8 -242.316C1799.87 -227.68 1803 -211.994 1803 -196.152C1803 -180.311 1799.87 -164.624 1793.8 -149.989C1787.73 -135.353 1778.82 -122.055 1767.6 -110.854L-187.737 1840.66C-198.96 1851.86 -212.285 1860.75 -226.949 1866.81C-241.613 1872.87 -257.33 1875.99 -273.203 1875.99C-289.075 1875.99 -304.792 1872.87 -319.457 1866.81C-334.121 1860.75 -347.445 1851.86 -358.668 1840.66C-369.892 1829.46 -378.796 1816.16 -384.87 1801.52C-390.944 1786.89 -394.071 1771.2 -394.071 1755.36C-394.071 1739.52 -390.944 1723.83 -384.87 1709.2C-378.796 1694.56 -369.892 1681.26 -358.668 1670.06L1596.67 -281.451C1607.89 -292.653 1621.21 -301.539 1635.88 -307.601C1650.54 -313.664 1666.26 -316.784 1682.13 -316.784C1698 -316.784 1713.72 -313.664 1728.39 -307.601C1743.05 -301.539 1756.37 -292.653 1767.6 -281.451Z" fill="url(#paint1_linear_377_43979)"/>
<path d="M1206.29 -845.789C1211.27 -840.823 1215.22 -834.928 1217.91 -828.439C1220.6 -821.951 1221.99 -814.997 1221.99 -807.974C1221.99 -800.951 1220.6 -793.997 1217.91 -787.508C1215.22 -781.02 1211.27 -775.124 1206.29 -770.159L339.488 94.9592C329.439 104.987 315.81 110.621 301.599 110.621C287.389 110.621 273.76 104.987 263.71 94.9592C253.662 84.9295 248.018 71.3272 248.018 57.1442C248.018 42.9611 253.662 29.3589 263.71 19.3291L1130.52 -845.789C1140.57 -855.817 1154.2 -861.45 1168.41 -861.45C1182.62 -861.45 1196.24 -855.817 1206.29 -845.789Z" stroke="white" stroke-width="4" stroke-miterlimit="10"/>
<path d="M167.681 820.105C177.729 830.134 183.374 843.737 183.374 857.92C183.374 872.103 177.729 885.705 167.681 895.735L-699.131 1760.85C-709.18 1770.88 -722.809 1776.51 -737.02 1776.51C-751.231 1776.51 -764.86 1770.88 -774.909 1760.85C-784.957 1750.82 -790.602 1737.22 -790.602 1723.04C-790.602 1708.85 -784.957 1695.25 -774.909 1685.22L91.9029 820.105C101.952 810.077 115.581 804.443 129.792 804.443C144.003 804.443 157.632 810.077 167.681 820.105Z" stroke="white" stroke-width="4" stroke-miterlimit="10"/>
<path d="M425.513 463.633C424.921 463.633 424.342 463.458 423.849 463.129C423.357 462.8 422.973 462.333 422.746 461.787C422.519 461.241 422.46 460.64 422.575 460.06C422.691 459.48 422.976 458.947 423.395 458.529C423.814 458.111 424.348 457.826 424.929 457.711C425.51 457.595 426.113 457.654 426.66 457.881C427.207 458.107 427.675 458.49 428.004 458.982C428.334 459.473 428.509 460.052 428.509 460.643C428.507 461.435 428.191 462.195 427.63 462.755C427.068 463.315 426.307 463.631 425.513 463.633Z" fill="white"/>
<path d="M425.513 492.962C424.921 492.962 424.342 492.787 423.849 492.458C423.357 492.13 422.973 491.663 422.746 491.116C422.519 490.57 422.46 489.969 422.575 489.389C422.691 488.809 422.976 488.276 423.395 487.858C423.814 487.44 424.348 487.155 424.929 487.04C425.51 486.925 426.113 486.984 426.66 487.21C427.207 487.436 427.675 487.819 428.004 488.311C428.334 488.803 428.509 489.381 428.509 489.972C428.507 490.765 428.191 491.524 427.63 492.084C427.068 492.644 426.307 492.96 425.513 492.962Z" fill="white"/>
<path d="M425.513 522.291C424.921 522.291 424.342 522.116 423.849 521.787C423.357 521.459 422.973 520.992 422.746 520.446C422.519 519.899 422.46 519.298 422.575 518.718C422.691 518.138 422.976 517.606 423.395 517.187C423.814 516.769 424.348 516.484 424.929 516.369C425.51 516.254 426.113 516.313 426.66 516.539C427.207 516.765 427.675 517.149 428.004 517.64C428.334 518.132 428.509 518.71 428.509 519.301C428.507 520.094 428.191 520.853 427.63 521.413C427.068 521.974 426.307 522.289 425.513 522.291Z" fill="white"/>
<path d="M425.513 551.621C424.921 551.621 424.342 551.446 423.849 551.117C423.357 550.789 422.973 550.322 422.746 549.775C422.519 549.229 422.46 548.628 422.575 548.048C422.691 547.468 422.976 546.935 423.395 546.517C423.814 546.099 424.348 545.814 424.929 545.699C425.51 545.583 426.113 545.642 426.66 545.869C427.207 546.095 427.675 546.478 428.004 546.97C428.334 547.462 428.509 548.04 428.509 548.631C428.509 549.424 428.194 550.184 427.632 550.745C427.07 551.306 426.308 551.621 425.513 551.621Z" fill="white"/>
<path d="M425.513 580.95C424.921 580.95 424.342 580.775 423.849 580.446C423.357 580.118 422.973 579.651 422.746 579.104C422.519 578.558 422.46 577.957 422.575 577.377C422.691 576.797 422.976 576.264 423.395 575.846C423.814 575.428 424.348 575.143 424.929 575.028C425.51 574.912 426.113 574.972 426.66 575.198C427.207 575.424 427.675 575.807 428.004 576.299C428.334 576.791 428.509 577.369 428.509 577.96C428.509 578.753 428.194 579.514 427.632 580.074C427.07 580.635 426.308 580.95 425.513 580.95Z" fill="white"/>
<path d="M425.514 610.28C424.921 610.28 424.341 610.104 423.849 609.775C423.356 609.446 422.972 608.979 422.745 608.432C422.519 607.885 422.46 607.284 422.576 606.703C422.692 606.123 422.978 605.59 423.398 605.173C423.818 604.755 424.352 604.471 424.934 604.356C425.516 604.242 426.118 604.302 426.665 604.53C427.213 604.757 427.68 605.142 428.008 605.634C428.337 606.127 428.511 606.706 428.509 607.298C428.507 608.089 428.191 608.848 427.629 609.407C427.068 609.966 426.307 610.28 425.514 610.28Z" fill="white"/>
<path d="M425.513 639.617C424.921 639.617 424.342 639.441 423.849 639.113C423.357 638.784 422.973 638.317 422.746 637.771C422.519 637.225 422.46 636.623 422.575 636.044C422.691 635.464 422.976 634.931 423.395 634.512C423.814 634.094 424.348 633.81 424.929 633.694C425.51 633.579 426.113 633.638 426.66 633.864C427.207 634.091 427.675 634.474 428.004 634.966C428.334 635.457 428.509 636.035 428.509 636.627C428.507 637.419 428.191 638.178 427.63 638.739C427.068 639.299 426.307 639.615 425.513 639.617Z" fill="white"/>
<path d="M425.513 668.946C424.921 668.946 424.342 668.771 423.849 668.442C423.357 668.114 422.973 667.647 422.746 667.1C422.519 666.554 422.46 665.953 422.575 665.373C422.691 664.793 422.976 664.26 423.395 663.842C423.814 663.424 424.348 663.139 424.929 663.024C425.51 662.908 426.113 662.968 426.66 663.194C427.207 663.42 427.675 663.803 428.004 664.295C428.334 664.787 428.509 665.365 428.509 665.956C428.507 666.748 428.191 667.508 427.63 668.068C427.068 668.628 426.307 668.944 425.513 668.946Z" fill="white"/>
<path d="M399.85 463.633C399.258 463.633 398.678 463.458 398.186 463.129C397.693 462.8 397.309 462.333 397.082 461.787C396.855 461.241 396.796 460.64 396.912 460.06C397.027 459.48 397.313 458.947 397.732 458.529C398.151 458.111 398.684 457.826 399.266 457.711C399.847 457.595 400.449 457.654 400.996 457.881C401.544 458.107 402.012 458.49 402.341 458.982C402.67 459.473 402.846 460.052 402.846 460.643C402.844 461.435 402.527 462.195 401.966 462.755C401.405 463.315 400.644 463.631 399.85 463.633Z" fill="white"/>
<path d="M399.85 492.962C399.258 492.962 398.678 492.787 398.186 492.458C397.693 492.13 397.309 491.663 397.082 491.116C396.855 490.57 396.796 489.969 396.912 489.389C397.027 488.809 397.313 488.276 397.732 487.858C398.151 487.44 398.684 487.155 399.266 487.04C399.847 486.925 400.449 486.984 400.996 487.21C401.544 487.436 402.012 487.819 402.341 488.311C402.67 488.803 402.846 489.381 402.846 489.972C402.844 490.765 402.527 491.524 401.966 492.084C401.405 492.644 400.644 492.96 399.85 492.962Z" fill="white"/>
<path d="M399.85 522.291C399.258 522.291 398.678 522.116 398.186 521.787C397.693 521.459 397.309 520.992 397.082 520.446C396.855 519.899 396.796 519.298 396.912 518.718C397.027 518.138 397.313 517.606 397.732 517.187C398.151 516.769 398.684 516.484 399.266 516.369C399.847 516.254 400.449 516.313 400.996 516.539C401.544 516.765 402.012 517.149 402.341 517.64C402.67 518.132 402.846 518.71 402.846 519.301C402.844 520.094 402.527 520.853 401.966 521.413C401.405 521.974 400.644 522.289 399.85 522.291Z" fill="white"/>
<path d="M399.85 551.621C399.258 551.621 398.678 551.446 398.186 551.117C397.693 550.789 397.309 550.322 397.082 549.775C396.855 549.229 396.796 548.628 396.912 548.048C397.027 547.468 397.313 546.935 397.732 546.517C398.151 546.099 398.684 545.814 399.266 545.699C399.847 545.583 400.449 545.642 400.996 545.869C401.544 546.095 402.012 546.478 402.341 546.97C402.67 547.462 402.846 548.04 402.846 548.631C402.846 549.424 402.53 550.184 401.968 550.745C401.407 551.306 400.645 551.621 399.85 551.621Z" fill="white"/>
<path d="M399.85 580.95C399.258 580.95 398.678 580.775 398.186 580.446C397.693 580.118 397.309 579.651 397.082 579.104C396.855 578.558 396.796 577.957 396.912 577.377C397.027 576.797 397.313 576.264 397.732 575.846C398.151 575.428 398.684 575.143 399.266 575.028C399.847 574.912 400.449 574.972 400.996 575.198C401.544 575.424 402.012 575.807 402.341 576.299C402.67 576.791 402.846 577.369 402.846 577.96C402.846 578.753 402.53 579.514 401.968 580.074C401.407 580.635 400.645 580.95 399.85 580.95Z" fill="white"/>
<path d="M399.85 610.28C399.257 610.28 398.678 610.104 398.185 609.775C397.692 609.446 397.308 608.979 397.081 608.432C396.855 607.885 396.796 607.284 396.912 606.703C397.029 606.123 397.314 605.59 397.734 605.173C398.154 604.755 398.689 604.471 399.27 604.356C399.852 604.242 400.455 604.302 401.002 604.53C401.549 604.757 402.016 605.142 402.344 605.634C402.673 606.127 402.847 606.706 402.846 607.298C402.843 608.089 402.527 608.848 401.965 609.407C401.404 609.966 400.643 610.28 399.85 610.28Z" fill="white"/>
<path d="M399.85 639.617C399.258 639.617 398.678 639.441 398.186 639.113C397.693 638.784 397.309 638.317 397.082 637.771C396.855 637.225 396.796 636.623 396.912 636.044C397.027 635.464 397.313 634.931 397.732 634.512C398.151 634.094 398.684 633.81 399.266 633.694C399.847 633.579 400.449 633.638 400.996 633.864C401.544 634.091 402.012 634.474 402.341 634.966C402.67 635.457 402.846 636.035 402.846 636.627C402.844 637.419 402.527 638.178 401.966 638.739C401.405 639.299 400.644 639.615 399.85 639.617Z" fill="white"/>
<path d="M399.85 668.946C399.258 668.946 398.678 668.771 398.186 668.442C397.693 668.114 397.309 667.647 397.082 667.1C396.855 666.554 396.796 665.953 396.912 665.373C397.027 664.793 397.313 664.26 397.732 663.842C398.151 663.424 398.684 663.139 399.266 663.024C399.847 662.908 400.449 662.968 400.996 663.194C401.544 663.42 402.012 663.803 402.341 664.295C402.67 664.787 402.846 665.365 402.846 665.956C402.844 666.748 402.527 667.508 401.966 668.068C401.405 668.628 400.644 668.944 399.85 668.946Z" fill="white"/>
<path d="M374.186 463.633C373.594 463.633 373.015 463.458 372.522 463.129C372.029 462.8 371.645 462.333 371.418 461.787C371.192 461.241 371.133 460.64 371.248 460.06C371.364 459.48 371.649 458.947 372.068 458.529C372.487 458.111 373.021 457.826 373.602 457.711C374.183 457.595 374.785 457.654 375.333 457.881C375.88 458.107 376.348 458.49 376.677 458.982C377.006 459.473 377.182 460.052 377.182 460.643C377.182 461.436 376.866 462.196 376.305 462.757C375.743 463.318 374.981 463.633 374.186 463.633Z" fill="white"/>
<path d="M374.186 492.962C373.594 492.962 373.015 492.787 372.522 492.458C372.029 492.13 371.645 491.663 371.418 491.116C371.192 490.57 371.133 489.969 371.248 489.389C371.364 488.809 371.649 488.276 372.068 487.858C372.487 487.44 373.021 487.155 373.602 487.04C374.183 486.925 374.785 486.984 375.333 487.21C375.88 487.436 376.348 487.819 376.677 488.311C377.006 488.803 377.182 489.381 377.182 489.972C377.182 490.765 376.866 491.526 376.305 492.086C375.743 492.647 374.981 492.962 374.186 492.962Z" fill="white"/>
<path d="M374.186 522.291C373.594 522.291 373.015 522.116 372.522 521.787C372.029 521.459 371.645 520.992 371.418 520.446C371.192 519.899 371.133 519.298 371.248 518.718C371.364 518.138 371.649 517.606 372.068 517.187C372.487 516.769 373.021 516.484 373.602 516.369C374.183 516.254 374.785 516.313 375.333 516.539C375.88 516.765 376.348 517.149 376.677 517.64C377.006 518.132 377.182 518.71 377.182 519.301C377.182 520.094 376.866 520.855 376.305 521.416C375.743 521.976 374.981 522.291 374.186 522.291Z" fill="white"/>
<path d="M374.186 551.621C373.594 551.621 373.015 551.446 372.522 551.117C372.029 550.789 371.645 550.322 371.418 549.775C371.192 549.229 371.133 548.628 371.248 548.048C371.364 547.468 371.649 546.935 372.068 546.517C372.487 546.099 373.021 545.814 373.602 545.699C374.183 545.583 374.785 545.642 375.333 545.869C375.88 546.095 376.348 546.478 376.677 546.97C377.006 547.462 377.182 548.04 377.182 548.631C377.183 549.024 377.106 549.413 376.956 549.776C376.806 550.14 376.585 550.47 376.307 550.747C376.029 551.025 375.698 551.246 375.334 551.395C374.97 551.545 374.58 551.622 374.186 551.621Z" fill="white"/>
<path d="M374.186 580.95C373.594 580.95 373.015 580.775 372.522 580.446C372.029 580.118 371.645 579.651 371.418 579.104C371.192 578.558 371.133 577.957 371.248 577.377C371.364 576.797 371.649 576.264 372.068 575.846C372.487 575.428 373.021 575.143 373.602 575.028C374.183 574.912 374.785 574.972 375.333 575.198C375.88 575.424 376.348 575.807 376.677 576.299C377.006 576.791 377.182 577.369 377.182 577.96C377.183 578.353 377.106 578.742 376.956 579.106C376.806 579.469 376.585 579.799 376.307 580.077C376.029 580.355 375.698 580.575 375.334 580.725C374.97 580.874 374.58 580.951 374.186 580.95Z" fill="white"/>
<path d="M374.186 610.28C373.594 610.28 373.014 610.104 372.521 609.775C372.028 609.446 371.645 608.979 371.418 608.432C371.191 607.885 371.133 607.284 371.249 606.703C371.365 606.123 371.651 605.59 372.071 605.173C372.491 604.755 373.025 604.471 373.607 604.356C374.188 604.242 374.791 604.302 375.338 604.53C375.886 604.757 376.353 605.142 376.681 605.634C377.009 606.127 377.184 606.706 377.182 607.298C377.182 607.69 377.105 608.078 376.954 608.441C376.803 608.803 376.582 609.132 376.304 609.409C376.026 609.686 375.696 609.905 375.332 610.055C374.969 610.204 374.579 610.281 374.186 610.28Z" fill="white"/>
<path d="M374.186 639.617C373.594 639.617 373.015 639.441 372.522 639.113C372.029 638.784 371.645 638.317 371.418 637.771C371.192 637.225 371.133 636.623 371.248 636.044C371.364 635.464 371.649 634.931 372.068 634.512C372.487 634.094 373.021 633.81 373.602 633.694C374.183 633.579 374.785 633.638 375.333 633.864C375.88 634.091 376.348 634.474 376.677 634.966C377.006 635.457 377.182 636.035 377.182 636.627C377.182 637.42 376.866 638.18 376.305 638.741C375.743 639.302 374.981 639.617 374.186 639.617Z" fill="white"/>
<path d="M374.186 668.946C373.594 668.946 373.015 668.771 372.522 668.442C372.029 668.114 371.645 667.647 371.418 667.1C371.192 666.554 371.133 665.953 371.248 665.373C371.364 664.793 371.649 664.26 372.068 663.842C372.487 663.424 373.021 663.139 373.602 663.024C374.183 662.908 374.785 662.968 375.333 663.194C375.88 663.42 376.348 663.803 376.677 664.295C377.006 664.787 377.182 665.365 377.182 665.956C377.182 666.749 376.866 667.51 376.305 668.07C375.743 668.631 374.981 668.946 374.186 668.946Z" fill="white"/>
<g opacity="0.6">
<path d="M29.3044 510.214C-59.0827 381.242 -25.7851 204.517 103.479 116.318C232.743 28.1189 409.791 61.3515 498.139 190.34C586.487 319.328 553.245 496.061 423.988 584.244C294.732 672.427 117.676 639.226 29.3044 510.214ZM389.947 264.151C342.375 194.672 247.034 176.819 177.443 224.337C107.852 271.856 89.916 366.979 137.496 436.442C185.077 505.905 280.426 523.79 350.025 476.303C419.624 428.815 437.536 333.63 389.947 264.151Z" fill="url(#paint2_linear_377_43979)"/>
</g>
</g>
</g>
</g>
<defs>
<linearGradient id="paint0_linear_377_43979" x1="1120.82" y1="-1353.96" x2="939.315" y2="284.03" gradientUnits="userSpaceOnUse">
<stop stop-color="#DAE000"/>
<stop offset="1" stop-color="#2EA7E0"/>
</linearGradient>
<linearGradient id="paint1_linear_377_43979" x1="-394.063" y1="779.595" x2="1803.03" y2="779.595" gradientUnits="userSpaceOnUse">
<stop stop-color="#DAE000"/>
<stop offset="1" stop-color="#2EA7E0"/>
</linearGradient>
<linearGradient id="paint2_linear_377_43979" x1="503.988" y1="145.099" x2="61.6737" y2="497.37" gradientUnits="userSpaceOnUse">
<stop stop-color="white"/>
<stop offset="1" stop-color="#2EA7E0" stop-opacity="0"/>
</linearGradient>
<clipPath id="clip0_377_43979">
<rect width="430" height="932" fill="white"/>
</clipPath>
<clipPath id="clip1_377_43979">
<rect width="2159" height="932" fill="white" transform="translate(-864)"/>
</clipPath>
<clipPath id="clip2_377_43979">
<rect width="3373" height="1624" fill="white" transform="translate(-1471 -347)"/>
</clipPath>
<clipPath id="clip3_377_43979">
<rect width="2159" height="932" fill="white" transform="translate(-976)"/>
</clipPath>
<clipPath id="clip4_377_43979">
<rect width="3397" height="3165" fill="white" transform="translate(-1594 -1289)"/>
</clipPath>
</defs>
</svg>
