<svg fill="none" height="70" viewBox="0 0 70 70" width="70" xmlns="http://www.w3.org/2000/svg"><path d="m7.80812 46.1106c.05904.133.12577.2557.19764.3784.03337.0716.07957.1457.12063.2122.06674.1329.13861.2607.20791.3886l.40297.6749c.07443.1253.1463.248.231.3707.14117.2403.308.4755.45431.7158.06673.0997.12833.1994.20276.2991.28234.4372.53896.8002.81366 1.153.1951.2633.3901.5215.6006.7797.0693.0972.1463.1943.2182.2915l.5672.6851c.0693.0793.1386.1713.213.2531.2516.3017.5185.5931.7854.8897 0 .0051.0077.0102.0129.0179.3311.4141.6879.7823 1.078 1.1095l.0103.0102c.2053.2097.4106.4167.6288.6213l.2592.2479c.2849.2659.5698.5292.8701.7849.0052 0 .0077.0051.0129.0077l.1463.1278c.2618.2275.5261.4525.7957.6621l.3208.2685c.2182.1738.444.3374.6673.5087l.3491.2659c.2387.1789.4928.3528.7366.5266.0899.0639.1797.1278.2721.1866l.0744.0588.7213.4704.308.2046c.3773.2403.752.4652 1.1268.6902.1078.0537.2156.1125.3157.1739.2772.1585.5646.3195.8444.4652.154.087.3132.1611.4723.2404.1925.1073.3927.2121.598.3195.0565.0179.1027.0358.1489.0614l.0103-.0103c.0847.0384.1642.0793.2464.1202.308.1534.6288.2991.9625.4423.0616.0255.1283.0511.195.0869.3696.1611.7392.3145 1.1217.4627.0873.0256.1797.0691.2695.1023.3465.1304.7033.2633 1.0575.3886l.1283.046c.3927.1329.7803.2608 1.1807.3809.0924.0256.1874.0588.2849.0844.4081.1227.8034.2684 1.2166.3451 26.3676 4.7628 34.0292-15.7123 34.0292-15.7123-6.4372 8.3087-17.8616 10.4996-28.6802 8.0607-.4004-.0921-.8008-.2199-1.2064-.3375-.5724-.1613-1.1398-.3395-1.7017-.5343l.2439.0741-.1592-.0613c-.349-.1176-.6853-.248-1.0267-.3784-.0835-.0353-.1683-.0677-.2541-.0971l-.0282-.0077c-.3773-.1508-.7443-.3042-1.1088-.4653-.0796-.0255-.1463-.0613-.2259-.092-.4317-.1874-.8595-.3834-1.2833-.588l.3542.1559c-.0924-.0407-.1832-.085-.2721-.1329-.2413-.1125-.4825-.2403-.7187-.3605-.1798-.0848-.357-.1752-.5313-.271l.0514.0256c-.2901-.1534-.5801-.3196-.8727-.4755-.0873-.0614-.1874-.1125-.2875-.1687-.4349-.2518-.8645-.5126-1.2885-.7823l.1617.0971c-.1086-.0668-.2148-.1376-.3182-.2122l.0154.0103c-.2759-.1688-.5464-.3461-.8111-.5318-.0873-.0562-.1668-.1176-.2567-.1789-.2765-.1881-.5487-.3824-.8162-.5829l.0616.0434c-.1078-.0869-.2233-.1687-.3388-.2531-.2259-.1764-.4543-.3451-.6802-.5292l-.3028-.2403c-.3228-.2558-.6395-.5192-.9497-.7899l-.0026-.0026-.8906-.8053-.2567-.2403c-.2104-.2122-.4261-.4142-.6417-.6238l-.2489-.2556c-.2658-.2622-.5251-.5307-.7777-.8053l-.0154-.0179-.0437-.0358c-.2717-.2973-.5395-.5982-.8033-.9025-.0693-.0792-.1335-.1636-.2054-.248l-.5826-.703c-.2627-.3286-.5194-.6618-.77-.9996l-.1027-.1432c-6.00092-8.1194-8.17234-19.3246-3.3701-28.5178l-4.24014 5.3405c-5.45422 7.7693-4.77918 17.8726-.60831 26.1224.09497.202.20021.3912.30287.5829z" fill="#1266a9"/><path d="m26.178 34.9182-.0283-.0409-.0231-.0307z" fill="#000"/><g fill="#1266a9"><path d="m29.0475 38.2722.231.2301c.2926.2812.5929.5548.8983.8283l.0385.0333c.308.2709.6545.5547 1.0113.8308l.0539.0409c.0873.0588.1617.1279.2464.1867.3593.2761.7212.5394 1.0986.8027l.0385.023c.1591.1151.3285.2199.5082.3324.0718.046.154.1073.231.1533.272.1739.539.3349.8136.5011.0436.0179.0821.0409.1232.0588.231.1406.4825.2761.7238.3988.0847.0512.1668.0895.2541.1381.172.0844.3414.1738.5057.2608l.0821.0357c.3465.1688.7007.3273 1.0472.4832.0873.0333.1617.0614.2361.0972.2849.1227.575.2403.8599.3477.1283.0434.2489.0946.3696.1329.2618.0971.5364.1866.7956.2761l.3594.115c.3747.1151.7546.2659 1.1524.3273 20.3616 3.3388 25.074-12.1971 25.074-12.1971-4.2427 6.0512-12.4535 8.935-21.2034 6.6827-.4368-.1097-.8699-.2334-1.2987-.3707l.1463.0409c-.1232-.0332-.231-.0716-.3491-.1074-.2669-.092-.5416-.1815-.8008-.2761l-.3696-.138c-.2875-.1151-.5801-.2225-.8599-.3452-.0872-.0383-.1668-.0639-.2335-.1022-.3594-.1611-.7213-.3196-1.0729-.4883l-.5288-.2736-.3054-.1534c-.2361-.1227-.4543-.2505-.6802-.3809-.0576-.0269-.1133-.0577-.1668-.092l.0077.0025c-.2721-.1687-.5544-.3323-.8162-.5036-.0873-.0486-.1668-.1074-.249-.1585l-.5338-.3451c-.3696-.2557-.7316-.5292-1.0986-.7951-.0821-.0741-.1617-.1355-.2413-.202-3.8474-2.9988-6.8813-7.0968-8.3212-11.7369-1.5169-4.8241-1.1832-10.2337 1.4374-14.62325l-3.2212 4.51995c-3.9553 5.6268-3.732 13.1481-.652 19.0997.5621 1.0993 1.132 2.0273 1.7608 2.9118.5852.8334 1.232 1.81 2.0123 2.4798.2772.3145.5749.6136.8855.9178z"/><path d="m39.2759 7.96988c-2.3331 3.39252-2.5564 7.60562-.9497 11.34582 1.7069 3.9728 5.195 7.0917 9.2607 8.5694.1668.0639.3285.1176.5005.179l.2259.069c.2361.0741.4748.161.7186.2147 11.2447 2.1501 14.2888-5.7214 15.1076-6.8795-2.6771 3.8092-7.1662 4.7244-12.6743 3.3976-.479-.1164-.9504-.2615-1.4117-.4346l.0847.0281c-.5741-.1979-1.1362-.4284-1.6838-.6903l.0976.0435c-1.0524-.5113-1.9559-1.0635-2.7952-1.6975-4.9229-3.707-7.967-10.7655-4.7535-16.5151z"/></g></svg>