<svg fill="none" height="70" viewBox="0 0 70 70" width="70" xmlns="http://www.w3.org/2000/svg"><path d="m0 0h70v70h-70z" fill="#f7df1e"/><path d="m48.4301 55.5747c1.2837 2.0665 2.9539 3.5854 5.9077 3.5854 2.4814 0 4.0666-1.2227 4.0666-2.9122 0-2.0246-1.6287-2.7416-4.36-3.9195l-1.4971-.6333c-4.3215-1.8151-7.1924-4.089-7.1924-8.8961 0-4.4281 3.4222-7.799 8.7705-7.799 3.8076 0 6.5449 1.3065 8.5175 4.7273l-4.6634 2.9521c-1.0268-1.8152-2.1344-2.5302-3.8541-2.5302-1.7541 0-2.8659 1.097-2.8659 2.5302 0 1.7712 1.1128 2.4883 3.6822 3.5853l1.4972.6323c5.0882 2.1513 7.9611 4.3444 7.9611 9.2751 0 5.3157-4.2355 8.2279-9.9236 8.2279-5.5617 0-9.1549-2.613-10.913-6.0378zm-21.1552.5116c.9407 1.6456 1.7965 3.0369 3.8541 3.0369 1.9675 0 3.2087-.759 3.2087-3.7101v-20.076h5.9886v20.1558c0 6.1136-3.6356 8.8961-8.9424 8.8961-4.7949 0-7.5717-2.4464-8.9839-5.393z" fill="#000"/></svg>