<svg fill="none" height="46" viewBox="0 0 48 46" width="48" xmlns="http://www.w3.org/2000/svg" xmlns:xlink="http://www.w3.org/1999/xlink"><filter id="a" color-interpolation-filters="sRGB" filterUnits="userSpaceOnUse" height="54" width="54" x="-3" y="0"><feFlood flood-opacity="0" result="BackgroundImageFix"/><feColorMatrix in="SourceAlpha" result="hardAlpha" type="matrix" values="0 0 0 0 0 0 0 0 0 0 0 0 0 0 0 0 0 0 127 0"/><feOffset dy="4"/><feGaussianBlur stdDeviation="2"/><feComposite in2="hardAlpha" operator="out"/><feColorMatrix type="matrix" values="0 0 0 0 0 0 0 0 0 0 0 0 0 0 0 0 0 0 0.25 0"/><feBlend in2="BackgroundImageFix" mode="normal" result="effect1_dropShadow_7_185"/><feBlend in="SourceGraphic" in2="effect1_dropShadow_7_185" mode="normal" result="shape"/></filter><g filter="url(#a)"><path d="m6.7479 11.6983c-1.058 0-1.91666.8587-1.91666 1.9167s.85866 1.9166 1.91666 1.9166h34.5c1.058 0 1.9167-.8586 1.9167-1.9166s-.8587-1.9167-1.9167-1.9167zm0 9.5833c-1.058 0-1.91666.8587-1.91666 1.9167s.85866 1.9167 1.91666 1.9167h34.5c1.058 0 1.9167-.8587 1.9167-1.9167s-.8587-1.9167-1.9167-1.9167zm0 9.5834c-1.058 0-1.91666.8586-1.91666 1.9166s.85866 1.9167 1.91666 1.9167h34.5c1.058 0 1.9167-.8587 1.9167-1.9167s-.8587-1.9166-1.9167-1.9166z" fill="#2a343d"/></g></svg>