<svg width="114" height="114" viewBox="0 0 114 114" fill="none" xmlns="http://www.w3.org/2000/svg">
<rect width="114" height="114" fill="black"/>
<g clip-path="url(#clip0_494_58560)">
<path d="M21.5823 86.9889H22.5149L21.0999 94.0443H24.4252L24.2644 94.8333H20L21.5823 86.9889Z" fill="white"/>
<path d="M29.5451 86.9889H30.4841L28.9019 94.8653H27.9692L29.5451 86.9889Z" fill="white"/>
<path d="M34.9865 86.9889H35.9256L37.7265 92.0303L38.2282 93.6787H38.2797C38.3826 92.9026 38.4791 91.979 38.6399 91.1644L39.476 86.9889H40.3765L38.8007 94.8653H37.8745L36.0799 89.8239L35.5654 88.137H35.5204C35.4174 88.9452 35.2952 89.8239 35.1344 90.6257L34.2983 94.8589H33.4042L34.9865 86.9889Z" fill="white"/>
<path d="M47.709 93.6146L48.3972 93.095C48.6122 93.4382 48.9121 93.7205 49.268 93.9148C49.6239 94.1092 50.024 94.209 50.4297 94.2047C50.6398 94.2269 50.8522 94.2054 51.0535 94.1415C51.2547 94.0776 51.4405 93.9726 51.5989 93.8333C51.7574 93.694 51.8851 93.5233 51.9739 93.3322C52.0627 93.1411 52.1107 92.9336 52.1149 92.723C52.1149 92.1394 51.729 91.7802 51.1372 91.4402L50.2303 90.8758C49.8762 90.7083 49.5754 90.4466 49.3609 90.1196C49.1464 89.7925 49.0266 89.4127 49.0147 89.0221C49.0302 88.717 49.1064 88.4181 49.2386 88.1425C49.3709 87.867 49.5567 87.6204 49.7852 87.4169C50.0137 87.2135 50.2805 87.0573 50.57 86.9574C50.8595 86.8575 51.166 86.8159 51.4717 86.8349C51.9048 86.8369 52.3316 86.9387 52.7187 87.1323C53.1059 87.3259 53.4429 87.6061 53.7036 87.951L53.0604 88.5026C52.8653 88.2412 52.6136 88.0271 52.3241 87.876C52.0346 87.725 51.7146 87.641 51.3881 87.6303C51.2091 87.619 51.0296 87.6434 50.8602 87.7021C50.6908 87.7607 50.5347 87.8524 50.4012 87.9718C50.2677 88.0912 50.1594 88.236 50.0825 88.3976C50.0057 88.5592 49.9619 88.7344 49.9537 88.9131C49.9537 89.5224 50.3976 89.8495 50.9829 90.1959L51.9026 90.7411C52.257 90.9024 52.5569 91.1628 52.7658 91.4907C52.9747 91.8186 53.0838 92.1999 53.0797 92.5883C53.0797 93.993 51.9477 95 50.3461 95C49.8245 95.0129 49.3083 94.8923 48.8466 94.6498C48.385 94.4072 47.9933 94.0509 47.709 93.6146Z" fill="white"/>
<path d="M58.0581 86.9889H58.9972L60.7981 92.0303L61.2998 93.6787H61.3513C61.4542 92.9026 61.5442 91.979 61.7115 91.1644L62.5476 86.9889H63.4481L61.8723 94.8589H60.946L59.1644 89.8239L58.6498 88.137H58.5919C58.489 88.9452 58.3668 89.8239 58.206 90.6257L57.3634 94.8589H56.463L58.0581 86.9889Z" fill="white"/>
<path d="M69.5649 86.9889H70.6391L71.5524 94.8653H70.5812L70.1695 90.3755C70.1052 89.5353 70.0152 88.7079 69.9573 87.8099H69.9058C69.4877 88.7143 69.0889 89.5096 68.6194 90.3755L66.2846 94.8653H65.2748L69.5649 86.9889ZM67.378 91.6776H70.8449L70.6776 92.4023H67.1915L67.378 91.6776Z" fill="white"/>
<path d="M76.46 86.9889H77.3926L75.8168 94.8653H74.8777L76.46 86.9889Z" fill="white"/>
<path d="M81.9014 86.9889H82.8341L81.419 94.0443H84.7444L84.5836 94.8333H80.3192L81.9014 86.9889Z" fill="white"/>
<path d="M88.0118 93.6146L88.7001 93.095C88.916 93.4374 89.216 93.719 89.5717 93.9132C89.9275 94.1074 90.327 94.2077 90.7326 94.2047C90.9431 94.2279 91.1562 94.2071 91.3583 94.1436C91.5603 94.0801 91.7469 93.9753 91.9061 93.8359C92.0652 93.6965 92.1935 93.5255 92.2827 93.3339C92.3719 93.1423 92.4201 92.9343 92.4242 92.723C92.4242 92.1394 92.0383 91.7802 91.4401 91.4402L90.5267 90.8886C90.171 90.7226 89.8684 90.4615 89.6527 90.1342C89.4369 89.807 89.3165 89.4264 89.3047 89.035C89.3211 88.7296 89.398 88.4305 89.5309 88.1549C89.6639 87.8793 89.8502 87.6327 90.0793 87.4294C90.3083 87.226 90.5755 87.0699 90.8654 86.9701C91.1552 86.8703 91.4621 86.8287 91.7681 86.8478C92.201 86.8512 92.6272 86.9536 93.0142 87.1471C93.4011 87.3406 93.7384 87.62 94 87.9638L93.3568 88.5154C93.1568 88.2541 92.9002 88.0411 92.6062 87.8923C92.3122 87.7435 91.9884 87.6627 91.6588 87.6559C91.4801 87.6447 91.301 87.6691 91.1319 87.7278C90.9629 87.7866 90.8073 87.8783 90.6743 87.9978C90.5412 88.1173 90.4335 88.2621 90.3574 88.4237C90.2812 88.5853 90.2382 88.7604 90.2309 88.9387C90.2309 89.5481 90.6747 89.8752 91.2536 90.2216L92.1733 90.7668C92.5294 90.9265 92.8311 91.1863 93.0413 91.5144C93.2515 91.8425 93.3611 92.2247 93.3568 92.614C93.3568 94.0187 92.2184 95.0257 90.6168 95.0257C90.0983 95.0297 89.5873 94.9023 89.1316 94.6555C88.676 94.4087 88.2907 94.0505 88.0118 93.6146Z" fill="white"/>
<path d="M56.9968 78.6506C51.0809 78.6531 45.2971 76.9061 40.3769 73.6304C35.4567 70.3547 31.6213 65.6975 29.3556 60.2478C27.0899 54.7982 26.4957 48.8009 27.6483 43.0146C28.8009 37.2282 31.6484 31.9126 35.8307 27.7402C40.013 23.5678 45.3422 20.7259 51.1443 19.574C56.9464 18.4222 62.9607 19.0121 68.4265 21.2691C73.8924 23.5261 78.5643 27.3489 81.8513 32.2539C85.1382 37.159 86.8927 42.9259 86.8927 48.8253C86.8842 56.7306 83.7321 64.31 78.1278 69.9011C72.5234 75.4922 64.9243 78.6387 56.9968 78.6506ZM56.9968 20.9242C51.4625 20.9217 46.0518 22.5559 41.4489 25.6202C36.8461 28.6844 33.2579 33.0411 31.1383 38.1391C29.0186 43.2372 28.4627 48.8475 29.5408 54.2607C30.619 59.6738 33.2827 64.6465 37.1952 68.5498C41.1076 72.4531 46.093 75.1117 51.5208 76.1893C56.9485 77.267 62.5748 76.7152 67.6881 74.6038C72.8014 72.4924 77.1719 68.9162 80.2468 64.3277C83.3218 59.7391 84.9631 54.3442 84.9631 48.8253C84.9546 41.4303 82.0058 34.3404 76.7633 29.1102C71.5209 23.8799 64.4125 20.9361 56.9968 20.9242Z" fill="white"/>
<path d="M73.7585 52.5646C73.7595 50.8636 73.224 49.2054 72.2277 47.8247C71.8522 47.2734 71.4211 46.7619 70.9413 46.2981C70.5703 45.9354 70.1726 45.6009 69.7514 45.2975C68.9666 44.7253 68.0991 44.2755 67.1786 43.9634C66.1854 43.6549 65.1508 43.4992 64.1106 43.5016H64.072C63.0315 43.4965 61.9965 43.6523 61.0039 43.9634C60.2525 44.2139 59.5352 44.5565 58.8685 44.9832V43.5016H54.3468V58.0486H55.556V44.7074H57.6014V47.4334L58.5919 46.6381C58.7463 46.5098 58.9071 46.3943 59.0614 46.2853C59.756 45.7806 60.5238 45.3848 61.3384 45.1115C62.2147 44.8384 63.1281 44.7021 64.0462 44.7074C64.9643 44.7025 65.8777 44.8388 66.7541 45.1115C67.5686 45.3848 68.3365 45.7806 69.031 46.2853C69.4106 46.5486 69.7697 46.8402 70.1052 47.1576C70.5244 47.5681 70.9014 48.0193 71.2308 48.5045C72.0733 49.6839 72.5233 51.0973 72.5172 52.5454C72.5198 52.5602 72.5198 52.5754 72.5172 52.5903V52.648C72.5172 52.7442 72.5172 52.8212 72.5172 52.8917C72.5172 52.9623 72.5172 60.3962 72.5172 63.507H73.7264C73.7264 60.4218 73.7264 52.8982 73.7264 52.8982C73.7264 52.8982 73.7264 52.7442 73.7264 52.648C73.7264 52.5518 73.7585 52.5967 73.7585 52.5646Z" fill="white"/>
<path d="M66.9535 47.7991C66.0508 47.3475 65.0562 47.1083 64.0463 47.1C63.0394 47.1094 62.0475 47.3449 61.1444 47.7891C60.2414 48.2333 59.4503 48.8747 58.8299 49.6656C57.9948 50.8188 57.5631 52.2139 57.6014 53.6359V65.4762H58.8106V53.6936C58.7632 52.5272 59.1073 51.3784 59.7883 50.4289C60.2925 49.7769 60.9393 49.2482 61.6793 48.8831C62.4138 48.5077 63.2273 48.3119 64.0527 48.3119C64.878 48.3119 65.6916 48.5077 66.4261 48.8831C67.1639 49.2516 67.81 49.7797 68.3171 50.4289C69.3076 51.7117 69.3076 53.1548 69.3012 54.8097V58.812C69.3012 59.5881 69.3012 60.3642 69.3012 60.7362H70.5104C70.5104 60.345 70.5104 59.5689 70.5104 58.812V54.8097C70.5104 53.0843 70.5104 51.3076 69.2755 49.6784C68.6547 48.8842 67.8606 48.2415 66.9535 47.7991Z" fill="white"/>
<path d="M42.319 39.6275C42.9384 39.9539 43.6284 40.1245 44.329 40.1245C45.0296 40.1245 45.7195 39.9539 46.339 39.6275C46.9822 39.28 47.5131 38.7572 47.8698 38.1202C48.2227 37.5143 48.4091 36.8262 48.4101 36.1255C48.4123 35.4142 48.2259 34.7149 47.8698 34.0986C47.5094 33.4627 46.9706 32.9456 46.3197 32.6106C45.7092 32.2884 45.0294 32.1189 44.3386 32.1167C43.6484 32.1167 42.9686 32.284 42.3576 32.6042C41.7121 32.9467 41.1753 33.4621 40.8075 34.0922C40.4534 34.7012 40.2669 35.3927 40.2669 36.0966C40.2669 36.8006 40.4534 37.492 40.8075 38.101C41.1696 38.7415 41.7044 39.2681 42.3512 39.6211L42.319 39.6275ZM41.8237 37.5173C41.5774 37.0924 41.4487 36.6099 41.4507 36.1191C41.4547 35.6225 41.59 35.1357 41.843 34.708C42.0997 34.2723 42.4712 33.9152 42.9172 33.6753C43.3546 33.4496 43.8397 33.3309 44.3322 33.329C44.8287 33.3284 45.3174 33.4519 45.7537 33.6881C46.1996 33.9176 46.5685 34.2721 46.815 34.708C47.0697 35.136 47.2042 35.6245 47.2042 36.1223C47.2042 36.62 47.0697 37.1085 46.815 37.5366C46.5671 37.9762 46.199 38.3365 45.7537 38.5756C45.312 38.8092 44.8193 38.9304 44.3193 38.9284C43.8174 38.9296 43.3229 38.8085 42.8786 38.5756C42.4345 38.3284 42.069 37.9617 41.8237 37.5173Z" fill="white"/>
<path d="M54.5655 39.6275C55.185 39.9539 55.8749 40.1245 56.5755 40.1245C57.2761 40.1245 57.9661 39.9539 58.5855 39.6275C59.2287 39.28 59.7596 38.7572 60.1163 38.1202C60.4722 37.5095 60.6596 36.8158 60.6596 36.1094C60.6596 35.4031 60.4722 34.7094 60.1163 34.0986C59.7628 33.4664 59.2334 32.9496 58.5919 32.6106C57.9814 32.2884 57.3016 32.1189 56.6109 32.1167C55.9207 32.1167 55.2408 32.284 54.6298 32.6042C53.9845 32.9446 53.4492 33.4606 53.0862 34.0922C52.7282 34.6999 52.5395 35.3919 52.5395 36.0966C52.5395 36.8014 52.7282 37.4933 53.0862 38.101C53.4441 38.7425 53.9771 39.2696 54.6234 39.6211L54.5655 39.6275ZM54.0895 37.5173C53.8432 37.0924 53.7145 36.6099 53.7165 36.1191C53.7205 35.6225 53.8558 35.1357 54.1088 34.708C54.3655 34.2723 54.737 33.9152 55.183 33.6753C55.6205 33.4496 56.1055 33.3309 56.598 33.329C57.0943 33.33 57.5826 33.4534 58.0195 33.6881C58.4626 33.9215 58.8305 34.275 59.0808 34.708C59.3312 35.1412 59.4642 35.6319 59.4667 36.1319C59.4626 36.6256 59.3296 37.1097 59.0808 37.5366C58.8373 37.9796 58.4681 38.341 58.0195 38.5756C57.5762 38.8043 57.0842 38.9231 56.5852 38.922C56.0853 38.9232 55.5928 38.8021 55.1508 38.5692C54.7058 38.3238 54.3383 37.9596 54.0895 37.5173Z" fill="white"/>
<path d="M50.0503 64.1357L49.5872 64.0266H49.5421C49.1442 63.9167 48.7632 63.7527 48.4101 63.5392C47.8167 63.1719 47.3343 62.651 47.0144 62.0319C46.4098 60.903 46.4676 54.521 46.4934 52.6738C46.4934 52.321 46.4934 52.0324 46.4934 51.7822V43.5145H42.036V54.0207C42.036 54.1362 42.036 54.2516 42.036 54.3543C42.036 54.7968 42.1196 57.3175 42.2161 57.7922C42.4436 58.9309 42.8797 60.0181 43.5025 60.9992C43.7935 61.4522 44.1204 61.8812 44.4802 62.282L44.5188 62.3205C44.6731 62.4809 44.8339 62.6476 44.9947 62.8016L45.3292 63.1158C45.4836 63.2505 45.6444 63.3788 45.8116 63.5071C46.8196 64.2752 47.9658 64.8435 49.1884 65.1812H49.2463C49.4328 65.2325 49.6065 65.2774 49.7737 65.3094C50.4439 65.4524 51.1272 65.5255 51.8126 65.5275H52.3915V64.3281H51.8384C51.2371 64.3279 50.6377 64.2634 50.0503 64.1357ZM45.4385 61.5123V61.4738C45.1211 61.1253 44.8349 60.7497 44.5831 60.3514C44.0449 59.4967 43.6678 58.5511 43.4703 57.5613C43.3867 57.1508 43.3353 54.6878 43.316 54.3029C43.31 54.209 43.31 54.1147 43.316 54.0207V44.7075H45.3549V51.763C45.3549 51.9875 45.3549 52.2889 45.3549 52.6417C45.3163 55.2073 45.3228 60.0948 45.7151 61.724L45.4385 61.5123Z" fill="white"/>
</g>
<defs>
<clipPath id="clip0_494_58560">
<rect width="74" height="76" fill="white" transform="translate(20 19)"/>
</clipPath>
</defs>
</svg>
