<svg width="100" height="100" viewBox="0 0 100 100" fill="none" xmlns="http://www.w3.org/2000/svg">
<rect width="100" height="100" fill="black"/>
<g clip-path="url(#clip0_630_71270)">
<path d="M18.9319 76.3062H19.75L18.5087 82.4951H21.4257L21.2847 83.1872H17.5439L18.9319 76.3062Z" fill="white"/>
<path d="M25.9169 76.3062H26.7406L25.3526 83.2153H24.5345L25.9169 76.3062Z" fill="white"/>
<path d="M30.6901 76.3062H31.5138L33.0936 80.7285L33.5337 82.1744H33.5788C33.6691 81.4936 33.7537 80.6835 33.8948 79.9689L34.6283 76.3062H35.4182L34.0358 83.2153H33.2234L31.6492 78.793L31.1979 77.3133H31.1584C31.0681 78.0222 30.9609 78.793 30.8198 79.4963L30.0864 83.2097H29.3021L30.6901 76.3062Z" fill="white"/>
<path d="M41.8501 82.118L42.4538 81.6623C42.6424 81.9633 42.9054 82.2109 43.2176 82.3814C43.5299 82.5518 43.8808 82.6394 44.2367 82.6356C44.421 82.6551 44.6073 82.6363 44.7838 82.5802C44.9604 82.5241 45.1233 82.432 45.2623 82.3098C45.4013 82.1876 45.5133 82.038 45.5912 81.8703C45.6692 81.7026 45.7113 81.5207 45.7149 81.3359C45.7149 80.8239 45.3764 80.5089 44.8573 80.2107L44.0618 79.7155C43.7512 79.5686 43.4873 79.3391 43.2991 79.0522C43.111 78.7653 43.0059 78.4322 42.9954 78.0895C43.0091 77.8219 43.0759 77.5596 43.1919 77.3179C43.3079 77.0762 43.4709 76.8599 43.6713 76.6815C43.8718 76.503 44.1058 76.366 44.3597 76.2784C44.6137 76.1907 44.8825 76.1542 45.1507 76.1709C45.5306 76.1727 45.905 76.2619 46.2446 76.4318C46.5842 76.6016 46.8799 76.8474 47.1085 77.1499L46.5443 77.6338C46.3732 77.4045 46.1524 77.2167 45.8985 77.0842C45.6445 76.9517 45.3638 76.878 45.0774 76.8686C44.9204 76.8587 44.7629 76.8801 44.6143 76.9316C44.4657 76.983 44.3288 77.0634 44.2117 77.1682C44.0946 77.2729 43.9996 77.3999 43.9322 77.5417C43.8648 77.6834 43.8264 77.8372 43.8192 77.9939C43.8192 78.5284 44.2085 78.8153 44.7219 79.1191L45.5287 79.5974C45.8396 79.7389 46.1026 79.9673 46.2859 80.2549C46.4692 80.5426 46.5648 80.877 46.5612 81.2178C46.5612 82.4499 45.5682 83.3333 44.1634 83.3333C43.7058 83.3446 43.253 83.2388 42.848 83.026C42.4431 82.8133 42.0995 82.5007 41.8501 82.118Z" fill="white"/>
<path d="M50.9282 76.3062H51.7519L53.3317 80.7285L53.7718 82.1744H53.8169C53.9072 81.4937 53.9862 80.6835 54.1329 79.9689L54.8664 76.3062H55.6562L54.2739 83.2097H53.4615L51.8986 78.793L51.4472 77.3133H51.3965C51.3062 78.0222 51.199 78.793 51.0579 79.4963L50.3188 83.2097H49.5289L50.9282 76.3062Z" fill="white"/>
<path d="M61.0219 76.3062H61.9642L62.7654 83.2153H61.9134L61.5523 79.2769C61.4959 78.5398 61.4169 77.814 61.3661 77.0263H61.321C60.9542 77.8196 60.6044 78.5173 60.1926 79.2769L58.1445 83.2153H57.2587L61.0219 76.3062ZM59.1036 80.419H62.1447L61.998 81.0548H58.94L59.1036 80.419Z" fill="white"/>
<path d="M67.0702 76.3062H67.8883L66.506 83.2153H65.6823L67.0702 76.3062Z" fill="white"/>
<path d="M71.8434 76.3062H72.6615L71.4202 82.4951H74.3372L74.1962 83.1872H70.4554L71.8434 76.3062Z" fill="white"/>
<path d="M77.2034 82.1182L77.8071 81.6625C77.9965 81.9628 78.2597 82.2098 78.5717 82.3802C78.8837 82.5505 79.2343 82.6385 79.59 82.6359C79.7747 82.6562 79.9616 82.638 80.1388 82.5823C80.3161 82.5266 80.4797 82.4346 80.6193 82.3123C80.759 82.1901 80.8715 82.0401 80.9497 81.872C81.028 81.7039 81.0703 81.5214 81.0738 81.3362C81.0738 80.8242 80.7353 80.5091 80.2106 80.2109L79.4094 79.727C79.0974 79.5814 78.832 79.3524 78.6427 79.0653C78.4534 78.7782 78.3478 78.4444 78.3374 78.101C78.3518 77.8331 78.4193 77.5708 78.5359 77.329C78.6525 77.0873 78.816 76.871 79.0169 76.6926C79.2178 76.5142 79.4522 76.3773 79.7065 76.2897C79.9607 76.2022 80.2299 76.1657 80.4984 76.1824C80.878 76.1854 81.252 76.2753 81.5914 76.445C81.9308 76.6147 82.2266 76.8598 82.4562 77.1614L81.892 77.6453C81.7165 77.416 81.4914 77.2292 81.2335 77.0987C80.9756 76.9682 80.6916 76.8973 80.4024 76.8913C80.2457 76.8815 80.0886 76.9029 79.9403 76.9544C79.792 77.0059 79.6555 77.0864 79.5388 77.1913C79.4221 77.2961 79.3276 77.4231 79.2609 77.5648C79.1941 77.7065 79.1563 77.8601 79.1499 78.0166C79.1499 78.5511 79.5392 78.8381 80.047 79.1419L80.8538 79.6201C81.1662 79.7602 81.4308 79.9881 81.6152 80.276C81.7995 80.5638 81.8957 80.899 81.892 81.2405C81.892 82.4727 80.8933 83.356 79.4884 83.356C79.0336 83.3595 78.5853 83.2478 78.1856 83.0313C77.786 82.8148 77.448 82.5006 77.2034 82.1182Z" fill="white"/>
<path d="M49.9973 68.9918C44.8079 68.9941 39.7343 67.4616 35.4184 64.5881C31.1025 61.7147 27.738 57.6295 25.7506 52.8491C23.7631 48.0687 23.242 42.8079 24.253 37.7321C25.264 32.6564 27.7619 27.9936 31.4305 24.3336C35.0992 20.6735 39.774 18.1807 44.8635 17.1703C49.953 16.1599 55.2287 16.6773 60.0234 18.6572C64.818 20.637 68.9161 23.9904 71.7994 28.293C74.6827 32.5957 76.2217 37.6544 76.2217 42.8293C76.2143 49.7638 73.4493 56.4123 68.5332 61.3168C63.6171 66.2213 56.9512 68.9814 49.9973 68.9918ZM49.9973 18.3547C45.1426 18.3524 40.3964 19.786 36.3588 22.4739C32.3212 25.1619 29.1737 28.9835 27.3144 33.4555C25.455 37.9274 24.9674 42.8488 25.9131 47.5972C26.8588 52.3455 29.1954 56.7075 32.6274 60.1315C36.0594 63.5555 40.4325 65.8876 45.1937 66.8328C49.9549 67.7781 54.8903 67.2941 59.3756 65.442C63.8609 63.5899 67.6947 60.4529 70.392 56.4278C73.0894 52.4028 74.5291 47.6704 74.5291 42.8293C74.5216 36.3425 71.935 30.1233 67.3363 25.5353C62.7377 20.9474 56.5023 18.3651 49.9973 18.3547Z" fill="white"/>
<path d="M64.7006 46.1096C64.7014 44.6175 64.2317 43.1629 63.3577 41.9517C63.0283 41.4682 62.6502 41.0195 62.2293 40.6126C61.9039 40.2944 61.555 40.0011 61.1855 39.7349C60.4971 39.233 59.7361 38.8384 58.9287 38.5646C58.0575 38.2941 57.1499 38.1575 56.2374 38.1595H56.2036C55.2909 38.155 54.383 38.2917 53.5123 38.5646C52.8532 38.7844 52.224 39.0849 51.6391 39.4592V38.1595H47.6727V50.9201H48.7334V39.2173H50.5276V41.6085L51.3965 40.9108C51.5319 40.7983 51.673 40.697 51.8084 40.6014C52.4176 40.1587 53.0912 39.8115 53.8057 39.5717C54.5744 39.3321 55.3756 39.2126 56.181 39.2173C56.9863 39.2129 57.7875 39.3325 58.5563 39.5717C59.2708 39.8115 59.9444 40.1587 60.5536 40.6014C60.8866 40.8324 61.2016 41.0882 61.4959 41.3666C61.8636 41.7267 62.1943 42.1225 62.4832 42.5481C63.2223 43.5826 63.617 44.8225 63.6116 46.0927C63.614 46.1057 63.614 46.119 63.6116 46.1321V46.1827C63.6116 46.2671 63.6116 46.3346 63.6116 46.3965C63.6116 46.4584 63.6116 52.9793 63.6116 55.7081H64.6724C64.6724 53.0019 64.6724 46.4021 64.6724 46.4021C64.6724 46.4021 64.6724 46.2671 64.6724 46.1827C64.6724 46.0983 64.7006 46.1377 64.7006 46.1096Z" fill="white"/>
<path d="M58.7312 41.9292C57.9393 41.533 57.0669 41.3232 56.1809 41.3159C55.2977 41.3242 54.4277 41.5308 53.6355 41.9204C52.8433 42.31 52.1494 42.8727 51.6052 43.5665C50.8727 44.5781 50.494 45.8018 50.5276 47.0492V57.4354H51.5883V47.0998C51.5467 46.0766 51.8485 45.0689 52.4459 44.236C52.8882 43.6641 53.4555 43.2004 54.1047 42.88C54.749 42.5507 55.4626 42.379 56.1866 42.379C56.9106 42.379 57.6242 42.5507 58.2685 42.88C58.9157 43.2033 59.4824 43.6665 59.9273 44.236C60.7962 45.3613 60.7962 46.6272 60.7905 48.0788V51.5896C60.7905 52.2704 60.7905 52.9512 60.7905 53.2775H61.8512C61.8512 52.9343 61.8512 52.2535 61.8512 51.5896V48.0788C61.8512 46.5653 61.8512 45.0068 60.768 43.5777C60.2235 42.881 59.5269 42.3172 58.7312 41.9292Z" fill="white"/>
<path d="M37.122 34.7611C37.6654 35.0473 38.2706 35.197 38.8851 35.197C39.4997 35.197 40.1049 35.0473 40.6483 34.7611C41.2125 34.4562 41.6782 33.9976 41.9911 33.4389C42.3007 32.9073 42.4642 32.3038 42.465 31.6891C42.467 31.0651 42.3035 30.4518 41.9911 29.9112C41.6749 29.3533 41.2024 28.8997 40.6314 28.6058C40.0958 28.3232 39.4995 28.1745 38.8936 28.1726C38.2881 28.1726 37.6918 28.3193 37.1558 28.6002C36.5896 28.9007 36.1187 29.3528 35.7961 29.9055C35.4855 30.4397 35.3219 31.0463 35.3219 31.6638C35.3219 32.2813 35.4855 32.8878 35.7961 33.422C36.1138 33.9838 36.5828 34.4457 37.1502 34.7554L37.122 34.7611ZM36.6875 32.91C36.4714 32.5373 36.3585 32.114 36.3603 31.6835C36.3638 31.2478 36.4825 30.8209 36.7045 30.4457C36.9296 30.0635 37.2555 29.7502 37.6467 29.5398C38.0304 29.3418 38.4559 29.2377 38.888 29.236C39.3235 29.2355 39.7521 29.3438 40.1349 29.5511C40.526 29.7523 40.8496 30.0633 41.0658 30.4457C41.2893 30.8211 41.4072 31.2497 41.4072 31.6863C41.4072 32.1229 41.2893 32.5514 41.0658 32.9269C40.8483 33.3125 40.5255 33.6286 40.1349 33.8383C39.7474 34.0432 39.3152 34.1495 38.8767 34.1478C38.4364 34.1488 38.0026 34.0426 37.6128 33.8383C37.2233 33.6215 36.9027 33.2998 36.6875 32.91Z" fill="white"/>
<path d="M47.8645 34.7611C48.4079 35.0473 49.0131 35.197 49.6276 35.197C50.2422 35.197 50.8474 35.0473 51.3908 34.7611C51.955 34.4562 52.4207 33.9976 52.7336 33.4389C53.0458 32.9032 53.2102 32.2946 53.2102 31.675C53.2102 31.0554 53.0458 30.4469 52.7336 29.9112C52.4235 29.3565 51.9591 28.9032 51.3964 28.6058C50.8609 28.3232 50.2646 28.1745 49.6587 28.1726C49.0532 28.1726 48.4569 28.3193 47.9209 28.6002C47.3548 28.8988 46.8853 29.3515 46.5668 29.9055C46.2528 30.4386 46.0873 31.0456 46.0873 31.6638C46.0873 32.282 46.2528 32.8889 46.5668 33.422C46.8808 33.9847 47.3484 34.4471 47.9153 34.7554L47.8645 34.7611ZM47.447 32.91C47.2309 32.5373 47.118 32.114 47.1197 31.6835C47.1232 31.2478 47.242 30.8209 47.4639 30.4457C47.6891 30.0635 48.0149 29.7502 48.4061 29.5398C48.7899 29.3418 49.2153 29.2377 49.6474 29.236C50.0827 29.2369 50.5111 29.3451 50.8943 29.5511C51.283 29.7557 51.6058 30.0659 51.8252 30.4457C52.0449 30.8256 52.1616 31.2561 52.1638 31.6947C52.1602 32.1278 52.0435 32.5525 51.8252 32.9269C51.6117 33.3155 51.2878 33.6325 50.8943 33.8383C50.5055 34.0389 50.0739 34.1431 49.6361 34.1422C49.1976 34.1432 48.7656 34.037 48.3779 33.8327C47.9876 33.6175 47.6652 33.2979 47.447 32.91Z" fill="white"/>
<path d="M43.9038 56.2594L43.4976 56.1637H43.4581C43.109 56.0673 42.7749 55.9234 42.4651 55.7361C41.9445 55.414 41.5214 54.957 41.2408 54.4139C40.7104 53.4237 40.7612 47.8255 40.7837 46.2051C40.7837 45.8956 40.7837 45.6425 40.7837 45.423V38.1707H36.8738V47.3866C36.8738 47.4879 36.8738 47.5892 36.8738 47.6792C36.8738 48.0674 36.9471 50.2786 37.0318 50.6949C37.2314 51.6938 37.6139 52.6475 38.1602 53.5081C38.4154 53.9054 38.7022 54.2817 39.0178 54.6334L39.0516 54.6671C39.187 54.8078 39.3281 54.9541 39.4691 55.0891L39.7625 55.3648C39.8979 55.4829 40.039 55.5955 40.1857 55.708C41.0699 56.3818 42.0754 56.8803 43.1478 57.1765H43.1986C43.3622 57.2215 43.5145 57.2609 43.6612 57.289C44.2491 57.4144 44.8485 57.4785 45.4498 57.4803H45.9576V56.4282H45.4723C44.9449 56.428 44.4191 56.3714 43.9038 56.2594ZM39.8584 53.9582V53.9244C39.58 53.6187 39.3289 53.2892 39.108 52.9398C38.636 52.1901 38.3052 51.3607 38.132 50.4924C38.0586 50.1323 38.0135 47.9718 37.9966 47.6342C37.9913 47.5517 37.9913 47.4691 37.9966 47.3866V39.2172H39.7851V45.4061C39.7851 45.6031 39.7851 45.8675 39.7851 46.177C39.7512 48.4275 39.7569 52.7148 40.1011 54.1439L39.8584 53.9582Z" fill="white"/>
</g>
<defs>
<clipPath id="clip0_630_71270">
<rect width="64.9123" height="66.6667" fill="white" transform="translate(17.5439 16.6667)"/>
</clipPath>
</defs>
</svg>
