<svg fill="none" height="110" viewBox="0 0 99 110" width="99" xmlns="http://www.w3.org/2000/svg" xmlns:xlink="http://www.w3.org/1999/xlink"><clipPath id="a"><path d="m16 11h67v69h-67z"/></clipPath><path d="m0 0h99v60.5c0 27.3381-22.1619 49.5-49.5 49.5s-49.5-22.1619-49.5-49.5z" fill="#000"/><g clip-path="url(#a)" fill="#bababa"><path d="m17.4326 72.7267h.8444l-1.2812 6.4056h3.0108l-.1456.7163h-3.861z"/><path d="m24.6422 72.7267h.8502l-1.4326 7.151h-.8444z"/><path d="m29.5689 72.7267h.8502l1.6306 4.5771.4543 1.4966h.0465c.0932-.7047.1806-1.5432.3262-2.2828l.757-3.7909h.8153l-1.4267 7.151h-.8386l-1.6248-4.5771-.4659-1.5315h-.0408c-.0931.7337-.2038 1.5315-.3494 2.2594l-.757 3.8433h-.8095z"/><path d="m41.0879 78.7422.6231-.4717c.1947.3116.4662.5679.7884.7443.3223.1764.6845.267 1.0519.2631.1901.0202.3825.0007.5647-.0574.1822-.058.3504-.1533.4939-.2798.1434-.1264.259-.2814.3395-.4549.0804-.1735.1239-.3618.1276-.5531 0-.5299-.3494-.856-.8852-1.1646l-.8211-.5125c-.3206-.152-.593-.3896-.7872-.6865-.1942-.297-.3026-.6418-.3134-.9964.0141-.277.083-.5484.2027-.7986.1198-.2501.288-.4741.4949-.6587.2069-.1847.4484-.3265.7105-.4172s.5397-.1285.8165-.1112c.3921.0018.7785.0942 1.129.2699.3506.1758.6557.4302.8917.7433l-.5823.5008c-.1767-.2373-.4045-.4317-.6667-.5688-.2621-.1371-.5518-.2134-.8474-.2231-.1621-.0103-.3246.0119-.478.0651-.1534.0533-.2947.1365-.4155.2449-.1209.1084-.219.2399-.2886.3866-.0695.1467-.1092.3058-.1166.468 0 .5532.4018.8502.9318 1.1647l.8327.4949c.3209.1465.5924.3829.7815.6806.1892.2977.2879.6439.2843.9966 0 1.2752-1.025 2.1895-2.4751 2.1895-.4722.0117-.9396-.0978-1.3576-.318s-.7726-.5437-1.03-.9398z"/><path d="m50.458 72.7267h.8502l1.6306 4.5771.4542 1.4966h.0466c.0932-.7047.1747-1.5432.3262-2.2828l.757-3.7909h.8153l-1.4268 7.1451h-.8385l-1.6132-4.5712-.4659-1.5315h-.0524c-.0931.7337-.2038 1.5315-.3494 2.2594l-.7629 3.8433h-.8153z"/><path d="m60.8763 72.7267h.9726l.8269 7.151h-.8794l-.3727-4.0763c-.0582-.7629-.1397-1.5141-.1921-2.3293h-.0466c-.3786.821-.7396 1.5431-1.1647 2.3293l-2.114 4.0763h-.9143zm-1.98 4.2568h3.1389l-.1514.658h-3.1564z"/><path d="m67.1192 72.7267h.8444l-1.4268 7.151h-.8502z"/><path d="m72.0459 72.7267h.8444l-1.2812 6.4056h3.0108l-.1456.7163h-3.861z"/><path d="m77.5782 78.7421.6232-.4717c.1955.3108.4671.5665.7892.7428.3221.1764.6838.2675 1.051.2647.1907.0211.3836.0022.5665-.0555.183-.0576.3519-.1528.496-.2794.1441-.1265.2602-.2817.341-.4557s.1244-.3628.1281-.5546c0-.5299-.3494-.856-.891-1.1647l-.8269-.5008c-.3221-.1506-.5961-.3877-.7914-.6849-.1954-.2971-.3044-.6426-.3151-.998.0148-.2772.0844-.5488.2048-.799s.2891-.4741.4965-.6587.4493-.3263.7117-.417c.2625-.0906.5403-.1283.8174-.111.3919.0031.7778.0961 1.1282.2717.3503.1757.6557.4294.8926.7415l-.5824.5008c-.1811-.2372-.4134-.4306-.6796-.5657s-.5594-.2084-.8578-.2146c-.1618-.0102-.3239.012-.477.0653s-.294.1366-.4144.2451-.218.24-.2869.3866c-.0689.1467-.1079.3057-.1145.4677 0 .5532.4018.8502.9259 1.1646l.8328.495c.3224.145.5955.3809.7858.6788s.2896.6448.2857.9983c0 1.2753-1.0307 2.1896-2.4808 2.1896-.4695.0036-.9322-.112-1.3447-.3361s-.7614-.5493-1.0139-.9451z"/><path d="m49.4971 65.1565c-5.3563.0023-10.593-1.5839-15.0478-4.5579-4.4547-2.974-7.9274-7.2022-9.9788-12.1499-2.0513-4.9477-2.5893-10.3926-1.5457-15.646s3.6217-10.0794 7.4084-13.8675c3.7867-3.7882 8.6118-6.3683 13.865-7.414 5.2532-1.0458 10.6986-.5102 15.6474 1.5389 4.9488 2.0492 9.1788 5.5198 12.1548 9.9731 2.9761 4.4532 4.5646 9.689 4.5646 15.045-.0077 7.1773-2.8616 14.0585-7.9358 19.1346-5.0743 5.0762-11.9546 7.9329-19.1321 7.9437zm0-52.4095c-5.0108-.0023-9.9097 1.4814-14.0772 4.2634-4.1674 2.782-7.4161 6.7374-9.3353 11.3659-1.9191 4.6285-2.4224 9.7221-1.4463 14.6367.9761 4.9145 3.3879 9.4292 6.9303 12.973 3.5423 3.5438 8.0561 5.9575 12.9704 6.9359 4.9144.9784 10.0085.4774 14.638-1.4395 4.6296-1.9169 8.5867-5.1637 11.3708-9.3297 2.7841-4.1659 4.2701-9.0639 4.2701-14.0745-.0077-6.7138-2.6775-13.1507-7.4241-17.8992-4.7466-4.7486-11.1825-7.4212-17.8967-7.432z"/><path d="m64.6733 41.4732c.0009-1.5444-.484-3.0499-1.386-4.3035-.3401-.5004-.7303-.9648-1.1648-1.3859-.3359-.3293-.696-.633-1.0773-.9084-.7106-.5195-1.496-.9279-2.3294-1.2113-.8993-.28-1.836-.4214-2.7779-.4192h-.0349c-.9421-.0047-1.8791.1368-2.7778.4192-.6804.2275-1.3298.5385-1.9335.9259v-1.3451h-4.0939v13.2072h1.0948v-12.1125h1.8519v2.4749l.8968-.7221c.1398-.1164.2854-.2212.4251-.3202.6289-.4582 1.3241-.8176 2.0616-1.0657.7934-.248 1.6204-.3717 2.4517-.3669.8312-.0045 1.6582.1193 2.4517.3669.7375.2481 1.4327.6075 2.0616 1.0657.3436.2391.6687.5038.9725.7919.3795.3727.7209.7824 1.0191 1.2229.7628 1.0708 1.1702 2.354 1.1647 3.6687.0024.0135.0024.0273 0 .0407v.0525.2212 9.6376h1.0948c0-2.801 0-9.6317 0-9.6317s0-.1398 0-.2271c0-.0874.0292-.0466.0292-.0757z"/><path d="m58.5119 37.1465c-.8173-.4101-1.7178-.6272-2.6322-.6348-.9117.0086-1.8097.2224-2.6273.6257-.8177.4032-1.5339.9855-2.0956 1.7036-.7561 1.047-1.147 2.3136-1.1123 3.6046v10.7498h1.0948v-10.6974c-.0429-1.0589.2686-2.102.8852-2.964.4565-.5919 1.0421-1.0719 1.7121-1.4034.665-.3408 1.4016-.5186 2.1489-.5186s1.4839.1778 2.1489.5186c.668.3346 1.253.814 1.7121 1.4034.8969 1.1647.8969 2.4749.891 3.9773v3.6337 1.747h1.0949c0-.3552 0-1.0598 0-1.747v-3.6337c0-1.5665 0-3.1795-1.1182-4.6586-.562-.7211-1.2809-1.3046-2.1023-1.7062z"/><path d="m36.2077 29.7276c.5609.2963 1.1856.4512 1.8199.4512s1.259-.1549 1.8198-.4512c.5824-.3155 1.0631-.7901 1.386-1.3684.3196-.5502.4883-1.1749.4892-1.8111.002-.6458-.1667-1.2806-.4892-1.8401-.3263-.5774-.8141-1.0469-1.4034-1.351-.5528-.2926-1.1683-.4464-1.7937-.4484-.6249-.0001-1.2405.1518-1.7937.4425-.5844.311-1.0704.7789-1.4034 1.351-.3206.5529-.4895 1.1807-.4895 1.8198s.1689 1.2669.4895 1.8198c.3279.5815.812 1.0596 1.3976 1.3801zm-.4484-1.9158c-.223-.3858-.3396-.8239-.3378-1.2695.0037-.4509.1262-.8928.3553-1.2811.2324-.3955.5687-.7198.9725-.9376.3961-.2049.8352-.3127 1.2812-.3144.4495-.0005.892.1116 1.287.3261.4037.2083.7377.5301.9609.9259.2306.3886.3524.8321.3524 1.284s-.1218.8954-.3524 1.284c-.2245.3992-.5577.7263-.9609.9434-.3999.2121-.846.3221-1.2987.3203-.4544.0011-.9022-.1089-1.3044-.3203-.4021-.2245-.7331-.5574-.9551-.9608z"/><path d="m47.2958 29.7276c.5608.2963 1.1856.4512 1.8199.4512s1.259-.1549 1.8198-.4512c.5824-.3155 1.0631-.7901 1.386-1.3684.3222-.5545.4919-1.1844.4919-1.8256 0-.6413-.1697-1.2712-.4919-1.8256-.3201-.5741-.7994-1.0433-1.3802-1.351-.5527-.2926-1.1682-.4464-1.7936-.4484-.6249-.0001-1.2405.1518-1.7937.4425-.5843.3091-1.0689.7776-1.3976 1.351-.3241.5517-.495 1.18-.495 1.8198 0 .6399.1709 1.2681.495 1.8198.324.5824.8067 1.061 1.3918 1.3801zm-.4309-1.9158c-.2231-.3858-.3397-.8239-.3378-1.2695.0036-.4509.1262-.8928.3552-1.2811.2324-.3955.5688-.7198.9726-.9376.3961-.2049.8352-.3127 1.2811-.3144.4494.0009.8915.1129 1.287.3261.4013.2118.7344.5328.9609.9259.2268.3933.3472.8388.3494 1.2927-.0036.4483-.1241.8878-.3494 1.2753-.2204.4022-.5547.7304-.9609.9434-.4013.2076-.8467.3155-1.2986.3145-.4526.001-.8985-.1089-1.2987-.3203-.4028-.2228-.7356-.5535-.9608-.955z"/><path d="m43.2076 51.9784-.4193-.099h-.0407c-.3604-.0998-.7052-.2487-1.025-.4425-.5373-.3334-.9741-.8064-1.2637-1.3685-.5474-1.0249-.495-6.8191-.4717-8.4962 0-.3202 0-.5823 0-.8094v-7.5062h-4.0357v9.5385.3028c0 .4018.0757 2.6904.163 3.1213.206 1.0339.6009 2.0209 1.1647 2.9116.2635.4113.5595.8008.8852 1.1647l.035.0349c.1397.1456.2853.297.4309.4368l.3028.2853c.1398.1223.2854.2388.4368.3552.9126.6974 1.9505 1.2133 3.0574 1.5199h.0524c.1689.0466.3261.0874.4775.1165.6069.1298 1.2255.1961 1.8461.198h.5241v-1.089h-.5008c-.5444-.0002-1.0871-.0587-1.619-.1747zm-4.1755-2.3817v-.0349c-.2873-.3165-.5465-.6575-.7745-1.0191-.4873-.776-.8287-1.6345-1.0075-2.5331-.0757-.3727-.1223-2.6089-.1397-2.9583-.0054-.0853-.0054-.1709 0-.2562v-8.4554h1.846v6.4056.7978c-.0349 2.3293-.0291 6.7667.3262 8.2458z"/></g></svg>