<svg fill="none" height="46" viewBox="0 0 46 46" width="46" xmlns="http://www.w3.org/2000/svg"><path d="m0 23c0 12.7025 10.2975 23 23 23s23-10.2975 23-23-10.2975-23-23-23-23 10.2975-23 23z" fill="#e60023"/><path d="m23 11.5c-6.325 0-11.5 5.175-11.5 11.5 0 4.7438 2.875 8.7687 6.9 10.4937 0-.8625 0-1.7249.1437-2.5875.2875-1.0062 1.4375-6.3249 1.4375-6.3249s-.4312-.7188-.4312-1.8688c0-1.725 1.0063-3.0188 2.1563-3.0188 1.0062 0 1.5812.7188 1.5812 1.725 0 1.0063-.7188 2.5876-1.0063 4.0251-.2874 1.15.5751 2.1562 1.8688 2.1562 2.1563 0 3.5938-2.7313 3.5938-6.1813 0-2.5875-1.725-4.4562-4.7438-4.4562-3.45 0-5.6062 2.5875-5.6062 5.4625 0 1.0063.2875 1.725.7187 2.3.1438.2875.2875.2875.1437.575 0 .1438-.1437.7188-.2874.8625-.1438.2875-.2875.4313-.575.2875-1.5813-.7188-2.3-2.4438-2.3-4.4562 0-3.3063 2.7312-7.1875 8.1937-7.1875 4.4562 0 7.3312 3.1624 7.3312 6.6124 0 4.4563-2.4437 7.9063-6.1812 7.9063-1.2937 0-2.4437-.7188-2.875-1.4375 0 0-.7188 2.5875-.8625 3.1625-.2875.8625-.7187 1.725-1.15 2.4437 1.0063.2875 2.1562.4313 3.3062.4313 6.325 0 11.5-5.175 11.5-11.5.1438-5.75-5.0312-10.925-11.3562-10.925z" fill="#fff"/></svg>