<svg fill="none" height="46" viewBox="0 0 46 46" width="46" xmlns="http://www.w3.org/2000/svg"><path d="m24.9245 36.5529c0 .5104-.2028.9999-.5637 1.3608s-.8504.5637-1.3608.5637-.9999-.2028-1.3608-.5637-.5637-.8504-.5637-1.3608l.0135-11.6419-11.64188.0135c-.51041 0-.99992-.2027-1.36083-.5637-.36092-.3609-.56368-.8504-.56368-1.3608s.20276-.9999.56368-1.3608c.36091-.3609.85042-.5637 1.36083-.5637l11.64188.0135-.0135-11.64187c0-.51042.2028-.99992.5637-1.36084.3609-.36091.8504-.56367 1.3608-.56367s.9999.20276 1.3608.56367c.3609.36092.5637.85042.5637 1.36084l-.0135 11.64187 11.6419-.0135c.5104 0 .9999.2028 1.3608.5637s.5637.8504.5637 1.3608-.2028.9999-.5637 1.3608c-.3609.361-.8504.5637-1.3608.5637l-11.6419-.0135z" fill="#fff"/></svg>