<svg fill="none" height="70" viewBox="0 0 70 70" width="70" xmlns="http://www.w3.org/2000/svg"><path d="m15.1084 5.59999h39.7833c1.4329-.00132 2.852.27401 4.176.81023 1.3241.53623 2.5272 1.32282 3.5404 2.31477 1.0132.99194 1.8166 2.16981 2.3643 3.46601.5477 1.2963.829 2.6857.8276 4.0885v37.441c.0014 1.4028-.2799 2.7921-.8276 4.0884s-1.3511 2.4741-2.3643 3.4661c-1.0132.9919-2.2163 1.7785-3.5404 2.3148-1.324.5362-2.7431.8115-4.176.8102h-39.7833c-1.4329.0013-2.852-.274-4.1761-.8102-1.32405-.5363-2.52712-1.3229-3.54032-2.3148-1.0132-.992-1.81665-2.1698-2.36437-3.4661-.54771-1.2963-.82894-2.6856-.82759-4.0884v-37.441c-.00135-1.4028.27988-2.7922.82759-4.0885.54772-1.2962 1.35117-2.47407 2.36437-3.46601 1.0132-.99195 2.21627-1.77854 3.54032-2.31477 1.3241-.53622 2.7432-.81155 4.1761-.81023z" fill="#001e36"/><g fill="#31a8ff"><path d="m18.06 46.8354v-25.8569c0-.1759.077-.2764.2567-.2764.4363 0 .847 0 1.4373-.0252.5903-.0251 1.2577-.0251 1.9507-.0502.693-.0252 1.4373-.0252 2.233-.0503.7956-.0251 1.5656-.0251 2.3356-.0251 2.1047 0 3.85.2513 5.2874.779 1.2884.4283 2.4633 1.1322 3.4393 2.0605.8271.8123 1.4661 1.7893 1.8737 2.8646.3885 1.0472.5882 2.1525.5903 3.2667 0 2.161-.5133 3.9451-1.54 5.3523-1.0314 1.4052-2.4715 2.4735-4.1323 3.0656-1.7454.6282-3.6704.8544-5.775.8544-.616 0-1.0267 0-1.2834-.0252-.2566-.0251-.616-.0251-1.1036-.0251v8.0662c.0057.0413.0029.0834-.0083.1236-.0112.0403-.0305.0779-.0569.1108-.0263.0328-.0591.0601-.0964.0802-.0373.0202-.0784.0328-.1208.0372h-4.9793c-.2053 0-.308-.1006-.308-.3267zm5.5953-21.2836v8.4431c.3594.0251.693.0502 1.001.0502h1.3604c1.002.0012 1.9979-.1514 2.9516-.4523.8183-.2356 1.5493-.6981 2.1047-1.3318.539-.6282.7957-1.4825.7957-2.5882.0241-.7852-.1806-1.5609-.5904-2.2364-.4279-.6524-1.0573-1.1542-1.7966-1.4323-.9636-.3695-1.9946-.5405-3.0287-.5026-.6673 0-1.2577 0-1.7453.0252-.3509-.0225-.7031-.0141-1.0524.0251z"/><path d="m53.48 32.4621c-.775-.3996-1.6049-.6874-2.464-.8544-.9435-.2092-1.9073-.3187-2.8747-.3267-.5194-.0175-1.0386.0418-1.54.1759-.3197.0652-.6032.2443-.7956.5026-.1297.2039-.2007.4383-.2054.6785.012.239.1019.468.2567.6533.2433.2793.5397.5098.8727.6784.5903.3016 1.2063.578 1.8223.8293 1.3867.457 2.7134 1.0727 3.9527 1.8343.8429.5189 1.5399 1.2359 2.0276 2.0857.4125.8016.6153 1.6909.5904 2.5882.0208 1.1877-.3284 2.3534-1.001 3.342-.7159 1.0031-1.7149 1.7803-2.8747 2.2364-1.2577.5277-2.7977.8041-4.6457.8041-1.1717.0047-2.341-.1048-3.4906-.3266-.9053-.1532-1.7857-.4236-2.618-.8041-.0895-.044-.1639-.1126-.2141-.1974-.0501-.0849-.0739-.1822-.0683-.2801v-4.3723c-.0022-.0429.006-.0858.0238-.125.0178-.0393.0449-.074.0789-.1011.0362-.0206.0782-.0293.1198-.0248.0415.0045.0806.022.1112.0499.9887.5706 2.0626.9861 3.1827 1.2313.9889.2519 2.0068.3786 3.0286.3769.9754 0 1.6684-.1256 2.1304-.3518.206-.0932.3807-.242.5034-.4289.1228-.1869.1885-.4042.1896-.6265 0-.3518-.2054-.6784-.616-1.0051-.4107-.3267-1.2577-.7036-2.5154-1.181-1.2902-.4451-2.5154-1.0533-3.6446-1.8092-.8043-.5612-1.4707-1.2909-1.9507-2.1359-.4096-.7937-.6124-1.6742-.5903-2.5631.0038-1.0723.3054-2.1233.8726-3.0405.6521-1.0088 1.5879-1.8116 2.695-2.3118 1.2064-.6031 2.7207-.8795 4.543-.8795 1.0651.0003 2.1288.0759 3.1827.2261.7578.1004 1.4995.2946 2.2073.578.1128.0391.2051.1205.2567.2261.0296.0981.0468.1994.0513.3016v4.0959c.0005.0488-.011.097-.0333.1407s-.0548.0816-.095.1106c-.1493.0525-.3127.0525-.462 0z"/></g></svg>