<svg fill="none" height="46" viewBox="0 0 46 46" width="46" xmlns="http://www.w3.org/2000/svg"><path d="m9.57228 7.48716c-.49047 0-1.00337.16484-1.3777.53859-.74845.74942-.74845 2.00675 0 2.75615l12.03912 12.0386-12.03912 12.0386c-.74845.7494-.74845 2.0067 0 2.7561.74865.7475 2.00672.7475 2.75542 0l12.039-12.0385 12.0389 12.0385c.7487.7475 2.0068.7475 2.7554 0 .7485-.7494.7485-2.0067 0-2.7561l-12.0391-12.0386 12.0391-12.0386c.7485-.7494.7485-2.00673 0-2.75615-.3743-.37375-.8874-.53859-1.3777-.53859-.4905 0-1.0032.16484-1.3777.53859l-12.0389 12.03855-12.039-12.03855c-.3743-.37375-.8872-.53859-1.37772-.53859z" fill="#2a343d"/></svg>